<svg xmlns="http://www.w3.org/2000/svg" viewBox="0 0 255.12 363.42"><defs><style>.cls-1{fill:#fff;}</style></defs><g id="logo-tekst"><path class="cls-1" d="M251.6,95.71c-.25.17-.57.28-.73.51-.37.52-.62,1.13-1,1.63s-.78,1.45-1.75,1.72c0-.33.1-.59.11-.86.07-1.16.17-2.32.17-3.48,0-.31-.28-.62-.43-.93a4.53,4.53,0,0,0-.93.48,29.79,29.79,0,0,1-2.63,2.53,25.7,25.7,0,0,1-3.74,2.08,12.7,12.7,0,0,1-2.5.85c-1,.25-2,.42-3,.62l-.08-.22a1.69,1.69,0,0,1,.19-.32q1.59-1.89,3.19-3.75a1.21,1.21,0,0,0,0-1.58c-.3-.52-.8-.35-1.23-.24-.9.22-1.78.56-2.69.76-3.33.7-6.67,1.35-10,2a15.08,15.08,0,0,0-5.87,2.15,10.5,10.5,0,0,0-3.94,4.23,8.31,8.31,0,0,1-1,1.48c-.41.54-1,.39-1.59.39-1.17,0-1.27-.14-1.28-1.29s-.1-2.23-.2-3.34c-.07-.79-.2-1.57-.33-2.48a2.25,2.25,0,0,0-.82.33,2.7,2.7,0,0,0-.65,1,10.31,10.31,0,0,1-3.8,4.88,2.15,2.15,0,0,1-1.88.4c.32-1.26.66-2.46.93-3.68A3.93,3.93,0,0,0,204,99a1.24,1.24,0,0,0-.66-.6c-.13,0-.46.26-.57.47a10.9,10.9,0,0,0-.62,1.45,13.41,13.41,0,0,1-2.36,4.1,5.2,5.2,0,0,1-1,.74l-.15-.16c0-.15.05-.3.06-.45.12-1.2.3-2.4.34-3.6a3,3,0,0,0-.84-2.26c-.45-.45-.92-.33-1,.3a10,10,0,0,0,0,1.23,6.82,6.82,0,0,1-1,3.88,10.32,10.32,0,0,1-5,3.71,8.43,8.43,0,0,1-1.2.19,9.7,9.7,0,0,1,.28-1.17,5,5,0,0,0-.24-4.36,3,3,0,0,0-1.07-1c-.39-.26-.66,0-.7.4s0,.64,0,1a10.41,10.41,0,0,1-3.08,7c-1.12,1.27-2.21,2.57-3.33,3.84a39.26,39.26,0,0,0-4.55,6.32c-.79,1.36-1.68,2.67-2.49,4-.49.81-1.25,1.14-1.85.66-1.28-1-2.48-2.07-3.77-3a2.91,2.91,0,0,1-1-2.82c.14-2,.44-4,.73-6.05a.94.94,0,0,1,.53-.65c1.18-.43,2.38-.81,3.57-1.18.39-.12.59-.34.42-.7a1,1,0,0,0-1.05-.72c-.53,0-1,0-1.58,0-1.37,0-2.74-.13-4.11-.12s-1.59.27-2,1.48c-.31.83-.64,1.66-1,2.46-.51,1.06-1.07,2.1-1.64,3.13a2,2,0,0,1-.71.8,2.06,2.06,0,0,1-3.19-1.57,3.43,3.43,0,0,1-.06-.34c-.18-1.09-.16-1.16.78-1.69a15.14,15.14,0,0,0,4.87-4.24,2.36,2.36,0,0,0,.18-.67,3.46,3.46,0,0,0-.74-.18c-.17,0-.33.15-.49.23-1.45.74-2.88,1.51-4.34,2.2-1,.46-2,.8-3,1.24a1.5,1.5,0,0,0-.67.67c-.21.4-.27.86-.45,1.27-.8,1.91-1.77,3.77-2.4,5.73-.93,2.88-1.13,3.14,1.36,4.81.22.15.49.25.71.41a4.86,4.86,0,0,1,.5.51c-1.34.84-2.62,1.15-3.91.21a17.22,17.22,0,0,1-2-1.79.62.62,0,0,0-.89-.15c-.63.41-.67.76-.11,1.31a10.72,10.72,0,0,1,1.34,1.26,15.16,15.16,0,0,1,2.06,4.45c.62,2.05.16,1.86,2.54,1.94a5.29,5.29,0,0,0,3.76-1.18,17.74,17.74,0,0,1,4.87-2.75,1.28,1.28,0,0,1,1,.05c2.39,1.49,4.74,3,7.09,4.55a1.76,1.76,0,0,1,.86,1.47,31.22,31.22,0,0,0,2.24,10.87c1,2.37,1.84,4.77,2.63,7.2a12.8,12.8,0,0,1,.4,3c0,.27-.22.55-.34.83-.26-.13-.52-.24-.76-.39a3,3,0,0,1-.45-.43,35.62,35.62,0,0,0-6.75-5.24,35.2,35.2,0,0,0-8.92-4,36.94,36.94,0,0,0-10.62-1.46,31.1,31.1,0,0,0-4.78.43,37.75,37.75,0,0,0-10.25,2.9,46.05,46.05,0,0,0-8.11,4.95,34.83,34.83,0,0,0-5.63,5.69,37.74,37.74,0,0,0-8.37,21.51c-.08,1.15-.12,1.52-.68,1.6a5.63,5.63,0,0,1-1.2,0c-1-.07-1.11-.34-.74-1.21,0-.11.16-.19.17-.3a10.07,10.07,0,0,0,.26-1.72.87.87,0,0,0-.48-.7c-.19-.06-.57.22-.72.44-.57.88-1.06,1.82-1.62,2.7a2.42,2.42,0,0,1-3,.63,21,21,0,0,1,1.58-1.44c.45-.34.59-.8.34-1.17-.13-.2-.77-.22-1.08-.1-1.08.44-2.12,1-3.17,1.48-.27.14-.48.41-.74.58a3.15,3.15,0,0,1-1,.53,8.93,8.93,0,0,1-1.37,0,.67.67,0,0,1-.75-.78c0-.4.12-1,.39-1.16,1.25-.67,2.57-1.23,3.87-1.8.52-.22,1-.52,1-1.1s-.32-.88-.79-1.15a6.38,6.38,0,0,1-2-1.81c.57-.08,1-.16,1.38-.2,1.45-.18,2.91-.32,4.35-.53a3,3,0,0,0,2.17-1.9c-.43-.74-1.11-.58-1.7-.64a8.2,8.2,0,0,1-5.09-2.23,8.29,8.29,0,0,1-.76-1c1.24-.2,2.3-.35,3.35-.55a18.26,18.26,0,0,0,3.33-.72,29.88,29.88,0,0,0,3.81-2c.27-.15.64-.46.63-.7a1.41,1.41,0,0,0-.55-.86,1.86,1.86,0,0,0-.83-.28c-.46-.09-.93-.15-1.39-.22v-.19a46.34,46.34,0,0,1,7.66-2.25c.42-.88,0-1.6-1.07-1.58-1.23,0-2.46.12-3.7.12a6.26,6.26,0,0,1-3.35-1,10.24,10.24,0,0,1,1-.26c1-.13,2-.18,3.06-.37a1.57,1.57,0,0,0,1-.71,2,2,0,0,1,1.26-1.14c.39-.12.78-.25,1.16-.4,1.8-.66,3.59-1.31,5.37-2,.72-.28,1.4-.67,2.11-1,1-.4,2-.76,3-1.14.54-.2,1-.44.83-1.18a1,1,0,0,0-1.27-1c-1.5.08-3,.14-4.51.29a12.72,12.72,0,0,1-6.57-.89c-.28-.13-.55-.29-.82-.44,1.21-.27,2.37-.38,3.53-.54a9.05,9.05,0,0,0,4.54-1.76,1.23,1.23,0,0,0-.09-2.11l-.66-.43c.08-.13.09-.21.14-.24,1-.66,2-1.26,2.86-2a20.42,20.42,0,0,0,2.5-2.42c.2-.22.11-.84,0-1.17s-.64-.27-.94-.2c-1.24.3-2.45.73-3.7,1a5.26,5.26,0,0,1-2.87,0l.51-.47c.89-.78,1.85-1.49,2.67-2.34s1.32-1.73,2-2.58c.35-.46.57-.92.17-1.43s-.86-.24-1.31,0a31,31,0,0,1-9.14,2.74,5.81,5.81,0,0,1-2.71-.12c.09-.13.12-.2.17-.22a59.45,59.45,0,0,0,7.81-5.14,6.56,6.56,0,0,0,2.32-2.33c-.89-1-1-.93-2.19-.33a30.86,30.86,0,0,1-4.33,2A60.4,60.4,0,0,1,103,130.32a2.8,2.8,0,0,0-2.33,1.61,31.22,31.22,0,0,1-5.59,7.49,1.93,1.93,0,0,1-1.19.52,6.28,6.28,0,0,1-5.18-2.48,13.52,13.52,0,0,1-1.49-2.3c-1-1.94-1.86-3.9-1.6-6.2a3.33,3.33,0,0,0-1.38-3.18,5.68,5.68,0,0,1-1.34-1.61c-1.55-2.61-1.54-2.62-4.5-3,0,0,0,0-.06,0-.19-.11-.48-.18-.52-.32s-.07-.67.07-.75c.34-.22.23-.39.17-.68a3.27,3.27,0,0,1,0-.93,4.92,4.92,0,0,0,0-1.15.74.74,0,0,0-.5-.44A1.29,1.29,0,0,0,76.38,118c-.09.93-.19,1.86-.27,2.79s-.23,1.08-1.06,1.11a2.05,2.05,0,0,1-1.14-.3,3.5,3.5,0,0,0-2.44-.68c-.79.09-1.61,0-2.39.16a1.5,1.5,0,0,0-1,.6c-.12.25.11.75.3,1.07.69,1.18,1.45,2.32,2.13,3.5a4.82,4.82,0,0,1,.31,1.22,2,2,0,0,1-2-.9c-1.24-1.51-2.56-3-3.67-4.59a40,40,0,0,1-2.76-4.86c-1.19-2.38-1.28-5-1.54-7.58a58.15,58.15,0,0,0-1-6.57,37.61,37.61,0,0,0-2-7.24c-2.18-5-5-9.65-9.56-13a60.29,60.29,0,0,0-5.65-3.95,22.19,22.19,0,0,0-13.89-3,3,3,0,0,0-1.45.64c-.42.33-.25.73.27.9l.33.08a12.15,12.15,0,0,1,7.15,3.82c.89,1,1.8,2,2.64,3.09a22.1,22.1,0,0,1,1.2,1.92l-.14.17a10.2,10.2,0,0,1-1.09-.27,12.08,12.08,0,0,0-5.47-.87,14.6,14.6,0,0,0-3.63.62,17.24,17.24,0,0,0-7.17,5.56,4.78,4.78,0,0,0-.49,1.51c1.28,0,2.34-.08,3.38,0a42.78,42.78,0,0,1,5.42.73,39.66,39.66,0,0,1,9,3.26,51.92,51.92,0,0,1,9.81,6.38,15.12,15.12,0,0,1,4,5c.72,1.46,1.55,2.88,2.21,4.37,1.18,2.72,2.29,5.47,3.4,8.22a15.09,15.09,0,0,0,4.3,6.5,59.93,59.93,0,0,0,5.47,3.87,13,13,0,0,1,3.38,3.43,4.41,4.41,0,0,1,.43,1.17l-.2.14c-1.2-.3-2.39-.59-3.58-.91-1-.26-1.42.13-1.13,1.13a9.43,9.43,0,0,0,.68,1.57c.22.45.13.73-.35.9-1.68.58-2.18,2-2.51,3.54a3.09,3.09,0,0,0,.07.85l.2.14a5.92,5.92,0,0,0,.82-.68,3.82,3.82,0,0,0,.4-.78,2.11,2.11,0,0,1,1.83-1.14c.39,0,.59.12.74.52a10.63,10.63,0,0,1,.38,3.72,1.62,1.62,0,0,0,.38,1,10.23,10.23,0,0,1,2.77,5.7c0,.2.17.52.3.54a.83.83,0,0,0,.64-.25,2.84,2.84,0,0,0,.61-2.8c-.18-.64-.41-1.26-.66-2a7.58,7.58,0,0,1,3.33,1.57,2.27,2.27,0,0,1,1,1.67c.15,1.31.15,2.63.25,3.95a3.32,3.32,0,0,0,.28.84,2.89,2.89,0,0,0,.9-.37,3.52,3.52,0,0,0,1.27-2.27,8,8,0,0,1,.22-.93,6.58,6.58,0,0,1,.91.51,24.51,24.51,0,0,1,4.31,4.84,1.44,1.44,0,0,1,.16.59,7,7,0,0,1-.38,3.37,34.65,34.65,0,0,1-5.5,9.82,55.16,55.16,0,0,0-4.21,5.91,56.37,56.37,0,0,0-2.78,6.24c-.23.53-.49.86-1.15.83a21.84,21.84,0,0,1-5.32-.82A10.71,10.71,0,0,1,63.25,181a6.37,6.37,0,0,1,.62-.68c.79-.69,1.58-1.39,2.4-2a7.42,7.42,0,0,0,2.86-5.32c.28-2.52-.58-4.88-.83-7.33,0-.43-.38-.52-.63-.27a4.46,4.46,0,0,0-1.14,1.48c-.34,1-.38,2.07-.72,3a9.32,9.32,0,0,1-1.28,2.44,1.74,1.74,0,0,1-2,.38c-.64-.15-.67-.74-.76-1.25-.06-.34,0-.69-.13-1a30.37,30.37,0,0,0-.83-3.15,2.26,2.26,0,0,0-1-1,9.18,9.18,0,0,0-4.53-1.38,7.73,7.73,0,0,1-5-1.94,3.59,3.59,0,0,0-.88-.54c-1.07-.52-1.59-.17-1.59,1a1.32,1.32,0,0,0,0,.28,6.83,6.83,0,0,0,1.43,3.14,14.1,14.1,0,0,0,4.4,3.65c.57.29,1.09.67,1.66,1a.74.74,0,0,1,.36,1.08.78.78,0,0,1-1.15.4,3.73,3.73,0,0,1-1-.87c-.78-.86-1.48-1.79-2.27-2.64a1.64,1.64,0,0,0-2.43-.33,10.88,10.88,0,0,1-4.18,1.79,11.27,11.27,0,0,0-1.82.36c-.27.09-.66.37-.68.6a1.43,1.43,0,0,0,.36,1,1.4,1.4,0,0,0,.88.28,11.06,11.06,0,0,1,3.72.84,2,2,0,0,1,1.11,1.1,9,9,0,0,0,2.08,3.5c1,.86,1,1,.25,2.11-.08.11-.18.21-.27.32a7.17,7.17,0,0,1-5.6,2.44c-1.55,0-3.11-.05-4.66,0a16,16,0,0,0-2.75.5c-.18,0-.45.35-.43.49a1.43,1.43,0,0,0,.44.76c.17.13.48.08.73.09a7.39,7.39,0,0,1,1.34.06,13.24,13.24,0,0,1,4.81,2.42c.75.59,1.42,1.29,2.15,1.9a.76.76,0,0,0,.67.12c1.13-.65,2.22-1.35,3.33-2a9,9,0,0,1,4.09-1.25,1.82,1.82,0,0,1,1.2.44c.74.61,1.37,1.34,2.07,2a13.15,13.15,0,0,0,4,3,14.78,14.78,0,0,0,5.94,1.13c1.12,0,2.24-.12,3.35-.2.43,0,.57.1.66.54.31,1.52.47,3.11,1.45,4.38a22.56,22.56,0,0,0,2.65,3A25,25,0,0,0,84.53,206a31.46,31.46,0,0,1,7.68,4,24.8,24.8,0,0,1,2.64,2.28,4.79,4.79,0,0,1,1.5,2.94,14.17,14.17,0,0,1-.51,6.1,1.68,1.68,0,0,1-1.29,1.2,11.36,11.36,0,0,0-1.6.59c-2.74,1.13-5.46,2.29-8.2,3.42-.93.39-1,.56-.91,1.53a6.73,6.73,0,0,1,.1.89c0,.5-.18,1.09,0,1.49a2.8,2.8,0,0,1,.2,1.83,18,18,0,0,1-2.09,6,1.86,1.86,0,0,0-.2.43c-.12.53.11.79.62.63a2.6,2.6,0,0,0,1.06-.57c1-1,2.07-2.06,3.06-3.12a13.18,13.18,0,0,1,3.54-3,5.89,5.89,0,0,0,2.65-2.51c.49-1,1.12-1.87,1.67-2.82.22-.38.43-.4.83-.23a6.81,6.81,0,0,0,2.17.74c.86.06,1.11.46,1.18,1.17,0,.3.07.59.1.89.14,1.61.24,3.23.41,4.84a3,3,0,0,0,2.91,2.8,27.45,27.45,0,0,0,6.08-.21,5.61,5.61,0,0,1,1.16,0,7,7,0,0,1,3.08,1.24,10.85,10.85,0,0,0,1.23.61,2.16,2.16,0,0,0,.07-.4,2.53,2.53,0,0,0,0-.48,4.25,4.25,0,0,0-2.19-2.56,13.06,13.06,0,0,0-4-1.39c-1.69-.48-1.75-.61-1.71-2.07,0-1.69.22-3.38.34-5.06a.94.94,0,0,1,1-.94,4.27,4.27,0,0,1,1.42.15c.67.19,1.32.48,2,.72a4.85,4.85,0,0,0,3,.25,6.7,6.7,0,0,0,3.68-2.37c.55-.69,1.12-1.38,1.7-2.06a1.08,1.08,0,0,1,.45-.4c1-.32,1.92-.62,2.89-.92l1.67-.52a3.68,3.68,0,0,0-.54-.56,4.29,4.29,0,0,0-3.42-.62,28.52,28.52,0,0,0-3.87,1.85c-1.35.67-2.8.41-4.21.39-.43,0-.62-.33-.22-.76.62-.65,1.19-1.33,1.77-2s1-1.44,1.64-1.81a29.83,29.83,0,0,1,3.91-1.63,4.47,4.47,0,0,1,1-.12,1.88,1.88,0,0,0-1.66-1.37c-.45,0-.89.06-1.34.07-.68,0-1.37,0-2,0a1.37,1.37,0,0,1-.73-.19,2.12,2.12,0,0,0-2.59-.1c-.87.54-1.78,1-2.67,1.51a1.28,1.28,0,0,0-.26.26,2.3,2.3,0,0,1-2.49.41,1.9,1.9,0,0,1-1.47-1.92c.31-2.32.72-4.64,1.08-7a.61.61,0,0,1,.72-.57c.9.09,1.8.22,2.7.33a2.19,2.19,0,0,0,.94.06c1.32-.49,2.61-1.08,3.93-1.56a34.87,34.87,0,0,1,3.56-1.11.94.94,0,0,1,.46,0,37.48,37.48,0,0,0,18,12.8,37.9,37.9,0,0,0,11.54,1.88h.88c.41,0,.81,0,1.22,0h.19l.37,0,.54,0,.84-.08.45,0c.53-.06,1.06-.13,1.58-.21h0c.3,0,.59-.09.88-.15l.46-.08.45-.09.58-.13.33-.07.55-.13.38-.09.42-.12.52-.14.24-.07,1-.29.68-.23.19-.07a37.28,37.28,0,0,0,23.51-24.56,2.3,2.3,0,0,1,.92-.76,7.65,7.65,0,0,0,1.83-1.05,24.51,24.51,0,0,0,2.66-2.92,37,37,0,0,0,4.4-7.72,72.14,72.14,0,0,0,3.72-9.64c.84-3.06,1.63-6.14,1.32-9.37a20.12,20.12,0,0,0-3.19-9.84,29.06,29.06,0,0,1-1.64-3,.63.63,0,0,1,.35-1c1.8-.83,3.58-1.72,5.39-2.52a10.37,10.37,0,0,1,6.32-.59,26.26,26.26,0,0,0,6.8.65,5.57,5.57,0,0,0,5-3.3,27.22,27.22,0,0,0,1.43-4.34,4.59,4.59,0,0,0,0-2c-.15-.78-.93-.9-1.45-.29-.35.42-.68.86-1,1.29a7.53,7.53,0,0,1-3,2.52,9.83,9.83,0,0,1-1.44.38l-.2-.27c3.29-3.55,6.68-7,8.57-11.64a1.28,1.28,0,0,0-1.54.24c-1.53,1.14-3.06,2.28-4.58,3.44-.44.34-.78.87-1.27,1.09a15.17,15.17,0,0,1-5.45,1.13,1,1,0,0,1-.83-.53,1.32,1.32,0,0,1,1.34-2,5,5,0,0,0,3.34-1.38,6.15,6.15,0,0,0,1.22-2,.76.76,0,0,0-.19-.7c-.12-.12-.47-.07-.68,0-.5.21-1,.51-1.48.71a5.93,5.93,0,0,1-3.74.41,34.73,34.73,0,0,0-3.64-.8,2.33,2.33,0,0,0-2.6,1.81c-.18.74-.15,1.53-.3,2.28-.31,1.47-.7,2.93-1,4.4a1.47,1.47,0,0,1-1.27,1.26c-1.48.26-3,.59-4.44.74a37.26,37.26,0,0,1-4.84.23c-1.14,0-1.38-.41-1.09-1.51A36.71,36.71,0,0,1,189,132.3c.33-.84.86-1.6,1.26-2.41.34-.66.58-1.37.93-2a41.67,41.67,0,0,1,2.61-3.49,6.58,6.58,0,0,1,2.62-2.13,24.33,24.33,0,0,1,4.93-1.62,30.39,30.39,0,0,1,9.8-.31c4.28.5,8.48,1.17,12.37,3.25a10.84,10.84,0,0,0,6.89.92,22.79,22.79,0,0,0,6.52-2c1-.48,2-1,2.91-1.5a34.48,34.48,0,0,0,3.45-2.1,14.83,14.83,0,0,0,4-4.1c.32-.53.86-1.15.22-1.79s-1.17-.06-1.73.21-1,.45-1.5.68l-.17-.23c.47-.58.91-1.18,1.41-1.73a29.6,29.6,0,0,0,4.6-6.53,16.7,16.7,0,0,0,1.62-4.85,29.41,29.41,0,0,0,.23-4.1C251.93,96.18,251.71,95.94,251.6,95.71Zm-136.1,55a.58.58,0,0,1,.45-.2,23.22,23.22,0,0,1,3.24.58l-4.14,1.53-.2-.16C115.06,151.87,115.26,151.27,115.5,150.7ZM68.57,129.6c-1.52-1-3.09-2-4.57-3.09a12.65,12.65,0,0,1-4.11-5.63c-1.33-3.25-2.86-6.44-3.93-9.78a23.92,23.92,0,0,0-3.53-6.22A26,26,0,0,0,47,99.47a46.11,46.11,0,0,0-12.21-6.4A39.83,39.83,0,0,0,25,91s0-.14,0-.17a10.09,10.09,0,0,1,6.88-3.31,15.08,15.08,0,0,1,5.85,1.3,26.9,26.9,0,0,1,5,2.73c.34.23.63.52,1,.73a2.24,2.24,0,0,0,.7.15c0-.24,0-.48,0-.72a.63.63,0,0,0-.12-.31c-1.38-2.53-2.66-5.11-4.2-7.54a41.14,41.14,0,0,0-3.64-4.52,8.85,8.85,0,0,0-1.14-1l.11-.2a3.87,3.87,0,0,1,.77.12A29.46,29.46,0,0,1,44.08,82a43.49,43.49,0,0,1,5.12,4,48.48,48.48,0,0,1,4.22,5.21,21,21,0,0,1,1.65,2.59c.47.86.84,1.78,1.25,2.68.21.48.41,1,.59,1.45a42.85,42.85,0,0,1,1.9,8.88c.31,2.24.4,4.52.86,6.73A24.37,24.37,0,0,0,64,123.29c1.28,1.72,2.7,3.33,4.06,5,.16.19.4.32.54.52a2.52,2.52,0,0,1,.24.58Zm-1.89,42.64a1.74,1.74,0,0,1,.25,2.75C65.81,174,65.72,173.18,66.68,172.24Zm-1.93,2.14c1,1.28.88,2.57-.29,2.89-.15-.61-.33-1.21-.45-1.83A.8.8,0,0,1,64.75,174.38Zm-18,13.29a.47.47,0,0,1-.12-.07l-2.28-2.43c.75-.12,1.32-.17,1.87-.3s1,0,1.06.61a11,11,0,0,1,.17,1.81C47.46,187.82,47.11,187.8,46.74,187.67Zm3.15-1.43c-.18-.36-.32-.68-.49-1-.3-.51-.21-.81.41-.87C50.35,185.13,50.4,185.75,49.89,186.24Zm9-17.32a1.11,1.11,0,0,1,.22.09c.42.32,1,.75.69,1.25-.18.3-.92.32-1.42.36a4,4,0,0,1-1.09-.31Zm-1.37,3.5a.81.81,0,0,1,.6-.27c.46,0,.91.09,1.37.07s.7.25.57.81H58.46c-.44,0-.86,0-1,.54a.93.93,0,0,0,.89,1c1,.09,2.1.15,3.14.22s1.08.25,1,1.31c-1.21-.15-2.43-.23-3.62-.46A2.2,2.2,0,0,1,57.47,172.42Zm-2.58-3.16a15.38,15.38,0,0,1-1.36-.78,1.07,1.07,0,0,1-.49-1.17c.05-.55.32-.81.83-.76.9.09,1.79.24,2.59.34-.21.77-.34,1.44-.58,2.06A.67.67,0,0,1,54.89,169.26ZM54,175a.86.86,0,0,1,.85,0c.48.44.93.68,1.62.07-.23,1.61-2.73,2.95-4.38,2.42C52.75,176.6,53.34,175.76,54,175Zm-4.31-2.12a.81.81,0,0,1-.66.19c-.61-.27-1.18-.63-1.85-1,.67-.36,1.3-.73,2-1,.92-.45,1.22-.31,1.64.63C50.41,172.06,50.08,172.5,49.7,172.87Zm.86,3.16a13.08,13.08,0,0,1,.34-1.93,2.12,2.12,0,0,1,.77-.81.53.53,0,0,1,.53,0,1,1,0,0,1,.36.67A3.16,3.16,0,0,1,50.56,176Zm2.5,8.9c0,.2-.54.27-.75-.15a3.92,3.92,0,0,0-.6-.9c-.73-.78-.74-.77-.25-1.7.12-.24.26-.48.42-.76l1,.73s.11,0,.11.07A24.56,24.56,0,0,1,53.06,184.93Zm1.35-4.22c-.28.38-.61.5-1,.23s-.78-.48-.82-.77a.89.89,0,0,1,.81-.94c.47-.09.92-.28,1.38-.39a3.88,3.88,0,0,0,2.1-1.2,1.42,1.42,0,0,1,1.77-.44,13.7,13.7,0,0,0,2.05.46,1.45,1.45,0,0,1-1.52,1.26,18.6,18.6,0,0,0-2,.25A4,4,0,0,0,54.41,180.71Zm1.86,3.38c-.48.74-.7.8-1.53.55a3.06,3.06,0,0,1,2.67-3.81l1.66-.18c0,.13,0,.23-.06.25A9.25,9.25,0,0,0,56.27,184.09ZM58.09,186c-.29-.22-.69-.61-.67-.89.11-1.25,2-3,3.26-3.13a2.5,2.5,0,0,1,2.17.83,7.37,7.37,0,0,0-4.05,3A.74.74,0,0,1,58.09,186Zm2.73,2.29c-.13.27-.41.7-.56.67a1.28,1.28,0,0,1-.85-.57,1,1,0,0,1,.14-.9c.64-.82,1.36-1.58,2-2.38a2.36,2.36,0,0,1,2.11-.65c.1,1.32,0,1.48-1.07,1.95A3.75,3.75,0,0,0,60.82,188.32Zm3.64.75a5.72,5.72,0,0,1-1.1,1.44c-.25.19-.82,0-1.23-.12-.15,0-.26-.29-.48-.56a17.51,17.51,0,0,1,1.45-1.92c.33-.33.79-.09,1.16.22S64.7,188.71,64.46,189.07Zm3.38,2.44-2.8-.22c.2-1.4,1.1-2.08,2.91-2.3C67.92,189.78,67.88,190.56,67.84,191.51Zm-.14-4.85a1.46,1.46,0,0,1-1.69,1c-.76-.18-1.13-1.07-.88-2.09a1.24,1.24,0,0,1,1.53-.87c.44.1.88.22,1.37.35C67.92,185.61,67.84,186.14,67.7,186.66Zm2.88,4.57a1.36,1.36,0,0,1-.4,0c-.29,0-.72.32-.82-.26s.11-1,.72-1.1l1.31-.18C71.73,190.79,71.56,191.07,70.58,191.23Zm1.1-3.5c-.12.46-1.48.68-2,.34-.73-.53-.79-.87-.34-2,.35-.87.63-1,1.5-.9.38.05.75.13,1.25.21C72,186.22,71.86,187,71.68,187.73Zm43.9,35.87a3.06,3.06,0,0,0,.69-.41c.21-.13.4-.27.6-.4l.14.14a5,5,0,0,1-2.5,2.52C114.24,224.1,114.32,224,115.58,223.6Zm-7-39.14c.4-.07.9,0,1,.59a17.42,17.42,0,0,1,.14,2.39c-.05.86-.75.46-1.32.51-.09-1-.2-1.9-.22-2.81A.84.84,0,0,1,108.59,184.46Zm-.91,7.29c.06-.59.13-1.17.22-2,.79,0,1.6,0,2.41,0a1,1,0,0,1,.6.46,2.46,2.46,0,0,1-.07,2.75c-.1.18-.5.27-.77.26a9.7,9.7,0,0,1-1.39-.2C107.86,192.94,107.59,192.59,107.68,191.75ZM104,191c.24-1.39.54-2.77.69-4.16a9.36,9.36,0,0,0-.23-2.07c.56-.17,1.1-.38,1.66-.49.4-.07.63.2.63.61s0,.73,0,1.1c-.13,2-.3,4-.38,6,0,.66-.27.82-.86.8C103.83,192.73,103.68,192.56,104,191Zm-9.43,6.62c-1.07-.22-1.11-.19-1.15-1.41,1-.07,2-.16,3-.19.14,0,.42.31.4.43-.13.7-.34,1.39-.49,2A9.24,9.24,0,0,0,94.52,197.62Zm.93,3a2.38,2.38,0,0,1-.59,1.32c-.22.29-1.29-.19-1.32-.58,0-.54,0-1.08,0-1.74a3,3,0,0,1,1,.14C94.88,200,95.43,200.28,95.45,200.59Zm-.34-15.34H91.44l-.11-.19c.16-.07.33-.21.47-.19a5.49,5.49,0,0,0,2.8-.29c.45-.16,1.14.23,1.69.45.79.33.67.92.35,1.53a5.68,5.68,0,0,0-.27.63c-.32,1-.73,1.21-1.84.87a1.24,1.24,0,0,1,.56-1.26,1.83,1.83,0,0,0,.54-.6C96,185.65,95.73,185.26,95.11,185.25Zm-12.27.29a16.36,16.36,0,0,0-2.37-.16c.23-.91.43-1.69.68-2.65a2.69,2.69,0,0,0,2.66.56,1.92,1.92,0,0,1,1.18.23,1.24,1.24,0,0,1,.5.73c0,.1-.29.32-.47.47s-.33.24-.49.36A1.93,1.93,0,0,1,82.84,185.54Zm.44,5H79.63c.12-1.2.22-2.36.37-3.53,0-.11.29-.27.44-.27a10,10,0,0,1,1.83.18.88.88,0,0,1,.55.58C83,188.5,83.13,189.49,83.28,190.57Zm11.11-27.43,2.51.3c-.2.92-.47,1.15-1.16,1.09C94.56,164.43,94.44,164.32,94.39,163.14Zm.75,3.39a9,9,0,0,1-.91.72c-.06,0-.41-.21-.4-.25a1.81,1.81,0,0,1,.41-.87c.15-.12.53.07.81.12Zm-.76-5.17a5.05,5.05,0,0,1-.68-.06c-1-.16-1.2-.56-.76-1.47a.62.62,0,0,1,.46-.26c.84,0,1.68,0,2.57,0A1.45,1.45,0,0,1,94.38,161.36Zm-4.33,20.33c1.51-1,1.78.5,2.62,1.21a10.3,10.3,0,0,1-2.24,0C89.82,182.71,90.05,182.07,90.05,181.69Zm-1-3.84,1.68.25c0,.53.06,1,.08,1.46C89.71,179.87,89,179.24,89,177.85Zm3.24-6.79a1.53,1.53,0,0,1-1.33-1c-.22-.81-.45-1.62-.75-2.67.74.35,1.4.65,2,1,.2.1.34.31.54.41.44.22.84.43.55,1S93,171,92.27,171.06Zm.58-7.42a1.86,1.86,0,0,1,.05.48l.09,0c-.18.45-.32.92-.54,1.36s-.58.44-1,.26-.25-.52-.15-.8c.2-.51.38-1,.62-1.51.11-.2.37-.32.56-.48A4.63,4.63,0,0,1,92.85,163.64Zm-3.31-7.16,1.87.2C90.85,157.36,90.12,157.32,89.54,156.48Zm1.34,3c.18.14.1.73,0,1.09a.72.72,0,0,1-.65.2,18.66,18.66,0,0,1-2.5-2c-.23-.24,0-.89,0-1.36C88.88,158.14,89.92,158.75,90.88,159.47Zm-.82,3.18c.06,0,.15.11.14.13a13.86,13.86,0,0,1-.79,2c-.07.12-.71.09-1-.07a16.6,16.6,0,0,1-1.83-1.42.5.5,0,0,1-.16-.41c.21-.74.45-1.46.67-2.16Zm-1.35,7.22c.07-.09.23-.11.42-.18.1.41.21.78.29,1.15,0,.1,0,.31,0,.32-.6.24-.79.77-1,1.29,0,.1-.65,0-1-.14-.07,0-.11-.46,0-.61C87.8,171.07,88.26,170.47,88.71,169.87Zm.36,4.48a1.63,1.63,0,0,1,1.72,1.16c.09.37,0,.71-.49.68s-1.23-.06-1.84-.13a.86.86,0,0,1-.46-.24,9.64,9.64,0,0,0-1.06-1.06,6.39,6.39,0,0,0-1.3-.57c.1-.39.26-.58.67-.34A4.14,4.14,0,0,0,89.07,174.35Zm-4,6.32c-.1-.47-.09-.71.4-.87.66-.21,1.31-.47,2.07-.75a9.47,9.47,0,0,1,.73,3.41c0,.42-1.07.83-1.37.47C86.29,182.19,85.3,181.76,85.07,180.67Zm2.52,6.75c.33.07.7,0,.63.54s-.43,1.07-.89,1a7,7,0,0,1-1-.38,2.11,2.11,0,0,0-.77-.25c-.83,0-1.23-.32-1.21-1.24.2-.08.41-.16.61-.26a1,1,0,0,1,1.33.16A2.81,2.81,0,0,0,87.59,187.42ZM86.68,177c.16.5-.58,1.18-1.52,1.18-.37-.16-1-.41-1.53-.68a.43.43,0,0,1-.1-.35c.12-.78.55-1.07,1.62-1.14A1.63,1.63,0,0,1,86.68,177Zm-3.12,2.82a.72.72,0,0,1,0,.37c0,.3,0,.51,0,.71s-.09.68-.15.68a2.4,2.4,0,0,1-1.1-.15c-.14-.06-.21-.46-.17-.69.06-.38.27-.73.36-1.1s.33-.6.66-.48S83.46,179.61,83.56,179.86Zm.9,10.07a1.25,1.25,0,0,1,1.08-.12,4.7,4.7,0,0,0,2.29,1s.09.1,0,.06a11.64,11.64,0,0,0-.69,1.11,1.39,1.39,0,0,1-1.3.84c-1.27.13-2-.19-2.2-1.53a1.34,1.34,0,0,0-.14-.34A4.54,4.54,0,0,1,84.46,189.93Zm3.85,3a1.77,1.77,0,0,1,2.33.89c-.88.54-1.76.13-2.86,0C88,193.51,88.08,193.08,88.31,193Zm-1.15-8.21h2.61c.12.64-.14.92-.67,1C87.78,185.94,87.31,185.73,87.16,184.77Zm3,2.58c.75-.17,1.52-.26,2.48-.41.14.09.57.25.57.41,0,.45-.15.92-.77.92s-1.5,0-2.25,0c-.17,0-.48-.3-.46-.4A.8.8,0,0,1,90.16,187.35Zm11.74,17.48c0,.36-.07.72-.1,1.09-.09,1.1-.51,1.35-1.54,1,.07-1.11.13-2.15.2-3.19C101.48,203.37,102,203.75,101.9,204.83Zm-1.11-3.21c.07-.73.15-1.43.2-2.12,0-.51.36-.62.79-.62h.07c1.32.35,1.75.17.86,1.65C101.94,201.83,101.9,201.86,100.79,201.62ZM102.4,210a.61.61,0,0,1-.15.56c-.69.35-1.39.85-2.21.22-.16-.12-.44-.09-.66-.13,0-.11,0-.14,0-.15.22-.4,0-1.13.69-1.18A3.06,3.06,0,0,1,102.4,210ZM99.64,199.7c0,.15-.31.34-.5.36a6.76,6.76,0,0,1-1.49,0,4.18,4.18,0,0,1-1.05-.45,2.81,2.81,0,0,0,1.79-2.32c.12.76.59,1,1.16,1.27S99.7,199.33,99.64,199.7ZM96.29,202a2.39,2.39,0,0,1,.87-.42l.65.1c1.16.14,1.15.14,1,1.33a1.58,1.58,0,0,0,0,.75,2.59,2.59,0,0,1-.23,1.83.72.72,0,0,1-1,.52A2.46,2.46,0,0,1,96.29,202Zm2.16,11.07c1.53-.33,3-.78,4.72-1.23-.16,1.09-.31,2.17-.49,3.24,0,.11-.27.21-.43.25a3.55,3.55,0,0,0-1.78.92c-.74.75-1.36.56-1.74-.43-.25-.64-.49-1.28-.73-1.92C97.82,213.44,97.83,213.2,98.45,213.07Zm5.52,4.8a2.56,2.56,0,0,1-3.21.21C101.89,216.19,102.69,216.19,104,217.87Zm-.43-9c-.84-.34-1-.63-.69-1.39a8,8,0,0,0,.37-3.79c-.13-1-.17-1,.69-1.76C104.65,203.1,104.45,207.19,103.54,208.85Zm-3-12.94a1.09,1.09,0,0,0,0-.26c-.28-.41-.5-1-.9-1.18-.24-.13-.76.22-1.22.38-.2-.22-.51-.55-.8-.89s-.25-.59.18-.81c1.07-.54,1.45-.45,2.34.39a1.89,1.89,0,0,0,1.15.43c.71,0,1.12.19,1.27,1a21.86,21.86,0,0,0,.73,2.45C101.74,197.85,100.76,197.29,100.5,195.91ZM98,187a4.72,4.72,0,0,1,.9-1.67c.31-.31,1-.28,1.49-.41.11.76.21,1.36.28,2a.63.63,0,0,1-.57.78,14.13,14.13,0,0,1-1.42.18A.63.63,0,0,1,98,187Zm3,2.33c.8-.13,1.54-.61,1.32-1.62a8,8,0,0,1-.16-1.9,2.17,2.17,0,0,1,.42-1,4.21,4.21,0,0,1,.52,2.88c-.23,1.37-.6,2.71-.87,4.08-.11.58-.39.77-1,.66a10.85,10.85,0,0,0-.35-1.44.88.88,0,0,0-.56-.51c-.16,0-.34.34-.53.5s-.42.4-.65.42c-1.61.09-1.92-.11-2.31-1.43C98.27,189.69,99.65,189.52,101,189.28Zm.32-17.12-.07.31c-1,0-2,0-3,0-.51,0-1.08,0-1.2.54a2.35,2.35,0,0,0,.13,1.6,24.19,24.19,0,0,0,1.94,2.54c-.4.18-.81.4-1.24.57-.68.26-1.38.45-2.06.73a1.56,1.56,0,0,0-1.1,1.76,11.17,11.17,0,0,1,0,1.16A2.64,2.64,0,0,1,93,178.92a20.1,20.1,0,0,1,1.47-6.23,46.48,46.48,0,0,1,2.24-4.39,5.61,5.61,0,0,1,.61-.76C98.21,169.56,99.87,170.78,101.34,172.16Zm-3.67-12.88c.22-.73.44-1.51,1.47-1.62a13,13,0,0,0,2.07-.56l.15.14c-.27.55-.53,1.11-.82,1.66-.15.3-.4.56-.54.87a1.21,1.21,0,0,1-1.57.68C97.62,160.28,97.43,160.07,97.67,159.28Zm11.3,1c-1,.32-2,.67-2.94.92s-2,.38-2.93.63c-.31.08-.76.34-.81.58a1,1,0,0,0,.76,1.08c.75.24,1.52.43,2.28.64l0,.2c-1.2.38-2.38.8-3.59,1.13a8.06,8.06,0,0,1-1.4.07,2.34,2.34,0,0,0-.53.21,5.86,5.86,0,0,1-1.35.39c1.43-2.94,3.9-5.22,4.61-8.51Zm-5.91-9.77c.2-1.07.33-2.06.59-3,.14-.54.66-.35,1-.24a5.09,5.09,0,0,1,1.16.54.61.61,0,0,1,.17.55c-.25.73-.54,1.45-.86,2.15a.67.67,0,0,1-.52.27C104.16,150.73,103.7,150.62,103.06,150.51Zm7.55,5.17c-1.8.16-3.63.34-5.47.48a1.78,1.78,0,0,1-1-.26c-.16-.1-.32-.56-.26-.62.54-.51.3-1.15.37-1.74,0-.18,0-.35.08-.62l1.5.32c1.35.33,2.71.64,4.05,1C110.81,154.51,110.8,154.55,110.61,155.68Zm-3.89-4.24c.49-1.25.89-2.28,1.31-3.3,0-.12.29-.18.46-.23a.63.63,0,0,1,.32.08c1.76.58,2.1,1.61,1,3.15a.84.84,0,0,1-.58.29C108.49,151.46,107.73,151.44,106.72,151.44Zm7.17-1.55c.18.73-.39,2.4-1,2.62a2.24,2.24,0,0,1-1.35-.19c-.11,0-.13-.57-.05-.84C111.87,150.12,112.37,149.82,113.89,149.89ZM98.33,138.27c1.23-1.72,2.46-3.44,3.62-5.21a1.77,1.77,0,0,1,1.44-.86c2.28-.33,4.54-.8,6.8-1.22a2.15,2.15,0,0,1,.85-.07c-.61.27-1.22.56-1.85.8-.87.33-1.75.66-2.64.93-.5.16-.62.46-.46.88a2.48,2.48,0,0,0,1.75,1.66c3.52.93,7,.45,10.43-.37l1-.24.07.15a4.21,4.21,0,0,1-.64.56,21.06,21.06,0,0,1-5.61,2.65,5.19,5.19,0,0,0-1.47.69.74.74,0,0,0-.25.63,2.28,2.28,0,0,0,2.12,1.64c1.87,0,3.74-.15,5.61-.22h.68a6.71,6.71,0,0,1-4.25,1.5c-1,0-2.1,0-3.15,0-.54,0-1.15-.08-1.38.6-.14.44.3,1,1,1.14,1.17.26,2.37.42,3.56.62l1.37.25v.19a3.25,3.25,0,0,1-.85.35,21.39,21.39,0,0,1-6.29,0,1.28,1.28,0,0,1-.68-.38,26.81,26.81,0,0,0-6.54-5.56c-.42-.26-.67-.79-1.05-1.14a1,1,0,0,0-.71-.35c-.22,0-.4.35-.58.56s0,.22,0,.33c-.1,1.36-.14,1.41-1.51,1.29-.5-.05-1-.18-1.5-.27l0-.24C97.59,139.12,98,138.72,98.33,138.27Zm-4.17,4.65c0-.08.18-.14.28-.14a3.11,3.11,0,0,0,2-.88,5.78,5.78,0,0,1,1-.42c0,1.14-.41,1.54-1.3,1.41a1.22,1.22,0,0,0-1.33.7,7.71,7.71,0,0,1-1,1.1l-.21-.17C93.72,144,93.92,143.44,94.16,142.92ZM75.62,123.19c1.12-.52,2.14,0,3.21,0a2,2,0,0,1,1.78,1.11c.73,1.18,1.6,2.27,2.41,3.4a4.13,4.13,0,0,1,.8,2.54,13.83,13.83,0,0,0,3.57,9.18,7.42,7.42,0,0,0,4.44,2.35c.67.15.7.42.48.94a1.5,1.5,0,0,1-1.7,1.08,4.53,4.53,0,0,1-.74-.08.94.94,0,0,0-1.17.46,3.16,3.16,0,0,1-.73.89,6.7,6.7,0,0,1-1.23.62c-.07-1.54-.12-2.81-.2-4.09a4.62,4.62,0,0,0-.77-2.44,27.86,27.86,0,0,1-1.34-2.54,9.42,9.42,0,0,0-2.86-3,1,1,0,0,0-.62-.25c-.69.08-.85-.42-1.14-.86-1-1.56-.64-3,.19-4.5a1.47,1.47,0,0,0,.26-.94,2.4,2.4,0,0,0-.63-1.26c-.47-.39-1,0-1.34.34a2.69,2.69,0,0,1-2.48.39c-.41-.1-.73-.67-1-1.07-.11-.14-.09-.39-.13-.6C74.43,123.63,74.47,123.72,75.62,123.19Zm-4.85-.31a2.67,2.67,0,0,1,2.39,2.51,2.66,2.66,0,0,0,1.83,2.8,1.53,1.53,0,0,1,.54.39c1.3,1.95,2.77,3.8,3.23,6.19a1.17,1.17,0,0,0,.54.75c1.75.78,2.57,2.45,3.72,3.81a6.79,6.79,0,0,1,1.4,3.79,4.41,4.41,0,0,1-.12,1.49,1,1,0,0,1-.62.55c-.41.13-.56-.23-.6-.56-.09-.63-.15-1.26-.2-1.9-.21-2.54-1.63-4.43-3.27-6.24A7.14,7.14,0,0,1,78,134c-.9-2.8-3-4.65-4.89-6.68-.15-.17-.38-.3-.47-.49C72,125.56,71.41,124.28,70.77,122.88ZM73,133.28a11.45,11.45,0,0,0,1,1.31c1.73,1.76,3.5,3.48,5.21,5.25A10.52,10.52,0,0,1,81,142.11a5.62,5.62,0,0,1,.25,2.12s-.45.17-.56.09a15.55,15.55,0,0,1-2.34-2A45.26,45.26,0,0,1,75,137.8c-.87-1.34-1.54-2.82-2.3-4.24Zm-.9-3.74c.38.09.72.06.86.21q1.25,1.35,2.4,2.79a4.54,4.54,0,0,1,.44,1.05A14.25,14.25,0,0,1,72.1,129.54Zm-1,8.35a.64.64,0,0,1,.35-.15,2.89,2.89,0,0,1,2.21,2.56c-.83-.29-1.62-.52-2.36-.85A.91.91,0,0,1,71.06,137.89Zm13.27,14.49c-1.5-1.23-2.92-2.57-4.52-3.65a27.54,27.54,0,0,0-6-3.34,7.51,7.51,0,0,1-2.77-2c-.38-.41-.22-1.32-.33-2.23,1,.38,1.7.63,2.42,1a23.93,23.93,0,0,1,5.19,3.51,18.94,18.94,0,0,0,2.87,2,4.23,4.23,0,0,0,3.64-.09c.22-.08.6-.12.72,0a2.4,2.4,0,0,0,2.36.47c.43-.08.84-.22,1.27-.3s.7-.08,1.09-.12c-.16.82-.42.93-1.07,1.08a7.52,7.52,0,0,0-1.89.82c-.12.07-.16.54-.06.72.27.5.06.73-.32,1a13.21,13.21,0,0,0-1.33,1.15A.8.8,0,0,1,84.33,152.38Zm1.11.91,0-.18,1.9-.27a3.83,3.83,0,0,0,3-2.06,12.07,12.07,0,0,1,1.12-1.63,1.4,1.4,0,0,1,1.51-.58,1.92,1.92,0,0,0,1.81-.55c.91-.86,1.92-1.61,2.81-2.49s1.81-1.92,2.66-2.92a1.08,1.08,0,0,1,1.5-.3c1.25.64,2.52,1.25,3.75,1.92a7.86,7.86,0,0,1,1.1.9l-.11.25c-.19,0-.41.16-.56.09a5.56,5.56,0,0,1-1.11-.63c-.49-.33-.92-.75-1.43-1.05a1.54,1.54,0,0,0-2,.16,5.74,5.74,0,0,1-.78.41c-.48.29-.49.73,0,.9a1.79,1.79,0,0,1,1.24,2.16,12.09,12.09,0,0,1-.51,2.2.62.62,0,0,1-.54.31,8.82,8.82,0,0,1-2.29-.63,6,6,0,0,0-3.9-.63c-.28.05-.51.37-.76.56.21.23.38.56.64.66.93.34,1.89.6,3,.93-1.15,1-2.92.54-3.62,2.07a2.8,2.8,0,0,0,2.27,0c.45-.13.84-.31,1.29.15s.82.06,1.15-.24a9.52,9.52,0,0,0,1.1-1.1.6.6,0,0,1,.88-.19,14.18,14.18,0,0,1,1.35.81c.71.51.4,2.3-.33,2.77a6.71,6.71,0,0,1-2.33.86.92.92,0,0,1-.57,0c-.25-.14-.58-.57-.67-.51a2.72,2.72,0,0,0-1.1.93,2.79,2.79,0,0,1-3.38,1c.65-.49,1.22-.95,1.84-1.35.13-.09.41.09.63.12s.51.1.63,0,.12-.4.13-.62a3.34,3.34,0,0,0-.1-.4c-.13-.94-.14-1-1.12-.93a45.52,45.52,0,0,0-5.22.73,4.35,4.35,0,0,1-3.82-.88A9.8,9.8,0,0,0,85.44,153.29ZM85.68,165c.17.13.34.26.52.38.52.39,1,.8,1.58,1.16s.56.36,0,1c-.8-.77-1.85-1.28-2.29-2.37Zm-2.41,4c.34-.71.77-1.37,1.23-2.17.75.73,1.37,1.34,2,1.95a.68.68,0,0,1,.11,1c-.28.39-.6.75-.9,1.11,0,0-.08.1-.1.09a8.18,8.18,0,0,1-1.72-.62C83.48,170.11,83,169.69,83.27,169ZM82,170.91l2.32,1.74-.93,1.17c-.57-.48-1-.85-1.5-1.27C81.17,171.87,81.21,171.51,82,170.91Zm-3.1,3.75c.38-.52.78-1,1.16-1.54.69.64,1.32,1.18,1.9,1.79a1,1,0,0,1,.26.82,9,9,0,0,1-.84,1.77c-.07.1-.56.13-.64,0-.64-.82-1.23-1.68-1.82-2.54A.36.36,0,0,1,78.93,174.66Zm-5.05,11.1.27,0c1.14,1.12,2.31,2.21,3.38,3.39.22.25.11.86,0,1.29-.15,1-.4,1.18-1.34.73a20,20,0,0,1-2.52-1.51.84.84,0,0,1-.32-.64C73.53,187.89,73.71,186.83,73.88,185.76Zm-.26,8.66c-.17-1.1-.25-2.2-.36-3.31l.23-.09c.35.25.7.49,1,.75A4.56,4.56,0,0,0,77,193a.58.58,0,0,1,.41.41c0,.54,0,1.08,0,1.66a6.25,6.25,0,0,1-3.24,0A.93.93,0,0,1,73.62,194.42ZM76.51,199a.48.48,0,0,1-.32-.06c-.61-.73-1.21-1.48-1.82-2.22l.17-.23,3,.24c0,.16.09.32.14.5C78,198.59,77.86,198.81,76.51,199Zm1.89-13.58c-.16.49-.35,1-.59,1.6-.43-.33-.8-.58-1.13-.87-.68-.61-1.34-1.23-2-1.86-.13-.13-.29-.35-.26-.5.15-.77.36-1.53.6-2.49.65.67,1.15,1.2,1.67,1.7A8.64,8.64,0,0,0,78,184.19,1,1,0,0,1,78.4,185.42Zm0-2.95a26,26,0,0,1-2.29-2.41,1.16,1.16,0,0,1,0-1c.32-.73.76-1.4,1.12-2.11.27-.54.63-.53.95-.14s.82,1.15,1.22,1.72l.85,1.2.17-.08a5.39,5.39,0,0,1-1.24,2.76A.76.76,0,0,1,78.45,182.47ZM84,200.08c0,1.31-.5,1.75-1.76,1.9a10.9,10.9,0,0,1-1.72-.71c-.53-.33-.48-.66,0-1.1s.85-.91,1.3-1.34a.65.65,0,0,1,.47-.12c.29,0,.58.18.86.19C83.94,199,84.05,199.47,84,200.08ZM82.85,197a1.3,1.3,0,0,1-.49-.79c-.11-.34,0-.74-.18-1.07a1,1,0,0,0-.57-.58.82.82,0,0,0-.71.33,4.52,4.52,0,0,0-.4,1.39c-.06.56,0,1.14,0,1.71,0,.15-.28.29-.43.43-.1-.12-.3-.23-.31-.35-.16-1.93-.29-3.86-.44-5.87l2.44-.16c.5,0,.84.15.89.7,0,.07,0,.13,0,.2.36,1.46.42,1.5,1.88,1.42.54,0,1.09,0,1.77,0-.16.9-.29,1.68-.47,2.44a.64.64,0,0,1-.42.36A3.54,3.54,0,0,1,82.85,197Zm5.27,6a.6.6,0,0,1-.73.55l-2.26-.17a11.6,11.6,0,0,0,.35-1.2.82.82,0,0,0,0-.56,1.13,1.13,0,0,1,.82-1.74c.43-.07.86-.13,1.28-.23s.75.07.75.51C88.28,201.15,88.21,202.1,88.12,203ZM89.94,200a1.75,1.75,0,0,0-2-1.86H86.91c.19-.86.35-1.63.51-2.4,1.23-.06,2.44-.14,3.64-.14.17,0,.44.35.51.58a15.46,15.46,0,0,1,.28,5c0,.53-.07,1.05-.12,1.58-.11.92-.32,1.08-1.25.94-.2,0-.4-.07-.71-.13,0-.68.09-1.35.12-2A13.73,13.73,0,0,0,89.94,200Zm2.16,7.56c-1.34,0-2.17-1-1.72-2.06C92.12,205.11,92.54,205.61,92.1,207.54Zm.17-16a.67.67,0,0,1-.59.22c-.66-.46-1.28-1-1.91-1.49a2.06,2.06,0,0,1-.23-.36H95.4c0,.5,0,.94.09,1.68a12.66,12.66,0,0,1-1.86-.52C92.83,190.7,92.62,190.75,92.27,191.54Zm.51,1.47,2.65-.19c.22,1.3.14,1.42-1,1.57l-.13,0C92.87,194.59,92.87,194.59,92.78,193Zm.52,10.83c.13-.16.25-.43.4-.46s.39.16.8.35c-.38.23-.56.42-.75.44S93.45,204,93.3,203.84Zm-3,27c-.82-.85-1-1.41-2.55-.74-.12-.45-.53-.8,0-1.27.09-.08-.08-.56-.25-.77a3.73,3.73,0,0,0-.79-.62c1.22-1.48,2.5-1.68,3.35-.63-.26.72-.53,1.39-.75,2.08-.16.54,0,.82.66.74.4-.06.81-.08,1.22-.11l.14.17Zm6.39-4.81-.82-.41.16-.09c-.06-.31,0-.74-.18-.9a.89.89,0,0,0-1.29.11,11.6,11.6,0,0,0-.9,1.19c-.4.54-.79,1.08-1.21,1.67l-1.31-2.22a9.4,9.4,0,0,1,1-.51c1.13-.46,2.28-.89,3.42-1.33.59-.23.93,0,1.14.58A2,2,0,0,1,96.71,226.07Zm.6-15.74-1.68.41a6.4,6.4,0,0,1-1.51-1.45,3.63,3.63,0,0,1-.2-2c0-.18.5-.41.8-.48a1.73,1.73,0,0,1,.85.15c.8.3,1.6.61,2.38,1a.6.6,0,0,1,.29.52,14.67,14.67,0,0,1-.65,1.71C97.56,210.26,97.41,210.31,97.31,210.33ZM100,225.16a1.58,1.58,0,0,1-.31.88,2.52,2.52,0,0,1-.88.38c-.08-.26-.26-.53-.22-.76a3.22,3.22,0,0,0-.55-2.39,1,1,0,0,1,.09-1.35A3.5,3.5,0,0,1,100,225.16Zm3.26,7.46a10.87,10.87,0,0,1-1,2.3.62.62,0,0,1-.58.17c-.27-.09-.66-.28-.71-.5-.24-1-.39-2-.54-3a.49.49,0,0,1,.22-.41,10.64,10.64,0,0,1,1.14-.27C103.4,231,103.59,231.16,103.23,232.62Zm.52-3.29c-.06.19-.51.37-.76.35a22.35,22.35,0,0,1-2.29-.39.48.48,0,0,1-.3-.22c-.62-1.21,0-2.36,1.64-2.45l2,.67s.11.06.1.08A14.09,14.09,0,0,1,103.75,229.33Zm-.4-6.27c.15.77.29,1.47.45,2.31l-2-.21C101.46,224.11,101.52,224,103.35,223.06Zm9.48.58c.31,1.82.18,2-1.55,2C111.06,223.71,111.28,223.76,112.83,223.64Zm-4.14-5.75c.19-.49.85-.79,1.34-1.13a.47.47,0,0,1,.45.06c.29.51.54,1,.79,1.57-.08.56-.67,1.27-1.16,1.29a.61.61,0,0,1-.35-.15,1.14,1.14,0,0,1-.27-.31C109.19,218.77,108.57,218.18,108.69,217.89Zm-1.79.68,2.2,2.63c-.46.18-.74.27-1,.4a1,1,0,0,0-.26,1.69,4.87,4.87,0,0,0,1.11.64c.71.33.72.32.42,1.19a11.7,11.7,0,0,0-1.19-.13,11.1,11.1,0,0,0-2,.18c-.4.08-.6,0-.77-.31-.37-.73-.76-1.45-1.11-2.19a.6.6,0,0,1,.06-.5C105.16,221,106,219.85,106.9,218.57Zm-2-.27.18.15a11.44,11.44,0,0,1-2.29,3.29,3.35,3.35,0,0,1-1.13.72.87.87,0,0,1-.72-.24c-.36-.31-.6-.76-1-1.05s-.29-.62-.18-1,.37-.46.74-.41a8.61,8.61,0,0,0,1.43.11A3.36,3.36,0,0,0,104.91,218.3Zm2.25-12.86c-.88.05-1.1-.09-1.09-.84,0-.43.05-.85.08-1.3,1.14-.16,1.19-.12,1.38.85a2.7,2.7,0,0,1,0,.41C107.57,204.91,107.91,205.41,107.16,205.44Zm-.86-4.32c-.35-.12-.53-.9-.66-1.4s.33-.48.66-.5.55,0,.82,0,.5-.06.78-.09C108.19,200.13,107.18,201.42,106.3,201.12Zm2-5.91a6.17,6.17,0,0,0-.08,1.29c.06.79-.39,1-1,1.09-1.81.22-2,.13-2.68-1.57-.23-.58-.4-1.18-.65-1.94,1.45.16,2.72.3,4,.46C108.17,194.58,108.35,194.79,108.28,195.21Zm.3,8,.91-.2c.09.86.17,1.65.27,2.55A2.79,2.79,0,0,1,108.58,203.25Zm.51-2.12c.16-.67.3-1.34.48-2A.44.44,0,0,1,110,199c.75.61,1.49,1.24,2.23,1.87,0,0,0,.08,0,.24Zm3.35,3.71h-.07c-1.53.23-2-.37-1.45-1.92.32,0,.66,0,1,0s.62-.06,1-.1c.08.26.17.51.26.77C113.44,204.43,113.29,204.68,112.44,204.84Zm1.5-4.23a5.35,5.35,0,0,0-1.47-1.41c-.88-.68-1.85-1.25-2.67-2-.28-.26-.26-.91-.29-1.38-.05-.62.22-1,.92-1l.27,0c1.26-.1,1.26-.1,1.23,1.15,0,1.08.25,1.47,1.52,1.71l.35.1a1.59,1.59,0,0,1,1,1c.22.55.51,1.08.78,1.6.16.34.14.54,0,.66a1.24,1.24,0,0,1-1.56-.44Zm2.91,2.57-1.82.46c-.43.1-.62-.2-.61-.53,0-.15.3-.36.5-.43.36-.12.76-.13,1.13-.22l.27-.07c.43-.09.46,0,.65.76ZM215,140.61l.27,1.33-.29.07-.38-1.3Zm-4.8,2.33c0,.1-.34.19-.51.18a.57.57,0,0,1-.36-.32,2.29,2.29,0,0,1,1.13-1.7C210.33,141.81,210.28,142.38,210.16,142.94Zm2-1.41a.83.83,0,0,1,.47-.43c.1,0,.34.14.42.28a3.89,3.89,0,0,1,.36.87c.22.78.06,1-.76,1s-.8-.11-.69-.79A4,4,0,0,1,212.11,141.53Zm-1.28-6.32c.89-.18,1.75-.49,2.62-.74l.15.24c-1.16.85-2.28,1.77-3.51,2.52-.77.47-1.15.26-1.59-.54a10,10,0,0,1-.47-1.12C209.05,135.45,210,135.39,210.83,135.21ZM207,138.4c.39.5.82,1,1.16,1.51s0,.72-.55,1c-.28-.82-.53-1.6-.79-2.38Zm-18-27.47,2.14,2.07a2.68,2.68,0,0,1-2.95-1C187.88,111.39,188,111.19,189,110.93Zm-1.72,3c.15.26.56.36.8.59a1.79,1.79,0,0,1,.26.61c-.19,0-.46.11-.58,0-.68-.5-1.32-1-2-1.62C186.43,113.32,186.93,113.28,187.3,113.93Zm-1-1.41c.06,0,.2.31.38.62l-1.05,0-.07-.24A3.23,3.23,0,0,1,186.33,112.52ZM186,119s.11,0,.13,0c.2-.27.44-.66.76-.26a1.66,1.66,0,0,1,.29,1c0,.5-.49.45-.84.46h-.14l0,.11c-.35-.15-.93-.25-1-.48C185,119.31,185.47,119.08,186,119Zm-3.17-1.47c.15.69-.2.91-.72.84-.22,0-.61-.39-.58-.46C181.75,117.32,182.26,117.4,182.79,117.52Zm3.34,17.68c-.12.73-.21,1.42-.34,2.1-.21,1.13-.45,2.26-.69,3.39a2,2,0,0,1-.25.76c-.26.34-.63.37-.78-.08a17.08,17.08,0,0,1-.87-3C183,136.73,183.73,135.69,186.13,135.2Zm-.27-3.46c.39-.8.48-.86,1.5-.29-.24,1-.46,1.15-1.22,1C185.75,132.29,185.69,132.08,185.86,131.74Zm-4.05,3c-.05-.31-.1-.66-.17-1.07l1.94.16.07.11Zm-2.1-8a.72.72,0,0,1,.68-.22c.32.17.75.48.79.78a2.71,2.71,0,0,1-.78,2.09c-.09.1-.62,0-.78-.19s-.14-.56-.17-.72A14.37,14.37,0,0,1,179.71,126.79Zm0,10.38c.94-.33,1.35,0,1.29,1s-.11,1.71-.17,2.66c-.93-.11-1.81-.19-2.68-.32a.52.52,0,0,1-.3-.37A3.79,3.79,0,0,1,179.67,137.17Zm-2.77.25a5.8,5.8,0,0,1-.6,1.06,3.26,3.26,0,0,1-.77.57c-.12-.5-.22-.84-.28-1.19-.15-.91,0-1.12.92-1a.85.85,0,0,0,1-.46,5.82,5.82,0,0,1,2.67-2.35,9.64,9.64,0,0,1,.29,1.24.69.69,0,0,1-.34.52,3.71,3.71,0,0,1-1,.21A2.19,2.19,0,0,0,176.9,137.42Zm.32-7.37c.53.29,1,.53,1.48.8s.61,1.53.34,1.74a.87.87,0,0,1-.74.06c-.57-.3-1.11-.68-1.7-1.05C176.8,131.11,177,130.61,177.22,130.05Zm-3.53.88a14.76,14.76,0,0,1,.87-2.14c.12-.23.58-.29,1-.47a3.06,3.06,0,0,1-1.84,3.33A2.45,2.45,0,0,1,173.69,130.93Zm-7.38-19.5c.28,0,.82.42.79.5-.2.6-.75.49-1.35.56C165.86,112,165.72,111.43,166.31,111.43Zm.45,2.81.17.17c-.18.28-.3.71-.56.82-.48.2-.88-.11-1.29-.69Zm-3.25,3.31a.83.83,0,0,1,1.3-.67,6.46,6.46,0,0,1,1.07.72.52.52,0,0,1-.14,1,5.39,5.39,0,0,1-.88.25C163.87,118.79,163.37,118.26,163.51,117.55Zm-7.68-.55a.44.44,0,0,1,.21.41c-.09.25-1.07.55-1.41.49C154.75,117.38,155.39,116.88,155.83,117Zm-2.32,5.77c-.45-.25-.63-.7-.3-1.08a8.86,8.86,0,0,1,1.65-1.47,3.93,3.93,0,0,1,1.18-.3l.2.17L155,122c-.13.19-.28.36-.4.55A.76.76,0,0,1,153.51,122.77Zm-.75,8.25a.58.58,0,0,1-.39-.29c-.28-.76-.54-1.53-.79-2.28a1.94,1.94,0,0,1,2.62.17l1.5,1.35A3,3,0,0,1,152.76,131Zm3.33-2.55c-.36-.33-.67-.72-1-1.1.15-.15.22-.24.3-.31,1.06-.88,1.08-.88,2,.15.3.34.62.66.93,1C157.53,129.19,157,129.26,156.09,128.47Zm1.42-4.61c-.14.21-.5.26-.77.38-.06-.27-.26-.62-.16-.79.54-.92,1.15-1.8,1.75-2.68.07-.11.26-.14.4-.2l.22.12c-.21.53-.4,1.07-.64,1.59A9.75,9.75,0,0,1,157.51,123.86Zm5-.22a20.68,20.68,0,0,0-1.27,2.64,1.25,1.25,0,0,1-1.35.91c-.74,0-1.15-.75-.82-1.58.47-1.19,1-2.35,1.52-3.51a5.1,5.1,0,0,1,.63-1c.94-1.24,1.7-1.38,3-.5a.59.59,0,0,1,.05.58C163.68,122,163,122.79,162.5,123.64Zm1.54,3c-.07.34-.26.67-.63.48a.8.8,0,0,1-.25-.75c.81-1.24,1.67-2.46,2.54-3.67a4.1,4.1,0,0,1,.79-.62c.29.46,0,.7-.2,1-.71.84-1.42,1.7-2.07,2.59C164.05,125.94,164.11,126.35,164,126.68Zm3.52,2.16a2.64,2.64,0,0,1-.48.26,1.42,1.42,0,0,1-1.28-2.25,11.24,11.24,0,0,1,1.86-2.38,1.32,1.32,0,0,1,1.19-.26c.88.48,1,.92.79,1.66A5.46,5.46,0,0,1,167.56,128.84Zm2.68,1.72c-.06.13-.36.29-.43.25s-.53-.45-.5-.52c.59-1,1.23-2.07,1.86-3.1,0,0,.21,0,.51,0C171.17,128.4,170.72,129.48,170.24,130.56Zm2.51,3.65c.05-.48.25-.72.83-.75a14,14,0,0,0,2-.45c.38-.08.8-.15,1,.36s-.11,1.32-.55,1.42c-1,.25-2.08.4-3.22.61C172.75,134.84,172.72,134.52,172.75,134.21Zm.24,5c-.08-.72-.16-1.34-.21-2a.37.37,0,0,1,.19-.3.37.37,0,0,1,.33.14A2,2,0,0,1,173,139.22Zm.48,2.17a1.83,1.83,0,0,1,2.76-.23,2,2,0,0,0,1.37.69c1.89-.15,3.33.94,4.93,1.61.68.28.68.87.6,1.5a1.5,1.5,0,0,0,.73,1.69.94.94,0,0,0,1.24-.13c.12-.12.52-.16.6-.06.53.56,1,1.18,1.5,1.8a1.52,1.52,0,0,1-2-.1c-.92-.75-1.83-1.5-2.7-2.29a1.63,1.63,0,0,1-.38-.84c-.14-.76-.43-1-1.19-.93a3.89,3.89,0,0,1-3.52-1.3,3.67,3.67,0,0,0-3.1-1.31A3.65,3.65,0,0,1,173.47,141.39Zm17.11,17.18a.69.69,0,0,1,.31-.6c.77-.2,1.56-.33,2.44-.5a13.9,13.9,0,0,1,.36,1.45c0,.27,0,.7-.15.83-.77.63-.84,1.59-1.26,2.38a1.41,1.41,0,0,1-1.1.91c-.37.05-.51,0-.47-.42A8.42,8.42,0,0,0,190.58,158.57Zm1.65,5.87c.26.79-.15,2.05-.78,2.15a2.71,2.71,0,0,1-1.56-.47c-.15-.09-.09-.6-.08-.92,0-.1.15-.24.25-.26C190.79,164.76,191.51,164.6,192.23,164.44Zm-2.41,3.26.08-.16c.36.27.92.47,1,.82a4.48,4.48,0,0,1-.08,1.7,1.11,1.11,0,0,1-.59,0,6.33,6.33,0,0,1-1-.74c-.25-.23-.77-.26-.58-.85A1,1,0,0,1,189.82,167.7ZM178,153a1.8,1.8,0,0,1,1.43,1,1.53,1.53,0,0,1-.35,2l-1,.79c-.2-1.25-.38-2.25-.5-3.26C177.6,153.35,177.87,153.07,178,153Zm-.73-2.84H177c-.13-.5-.45-1.07-.31-1.48a1.08,1.08,0,0,1,1.48-.55Zm3,2.11c-1.08,0-1.57-.67-1.24-1.68a6.33,6.33,0,0,1,.5-1.2c.5-.89,1.07-1,1.68-.19A4.57,4.57,0,0,1,182,151C182.09,151.42,180.89,152.32,180.34,152.31Zm2.54.42a6.91,6.91,0,0,1,.65-.38.78.78,0,0,1,.26.11,26.21,26.21,0,0,1,1.92,2c.41.54.19.9-.44,1.15a5.59,5.59,0,0,0-1.56.79.8.8,0,0,1-1.25-.09,9.23,9.23,0,0,1-1.05-1.43c-.36-.59-.23-.91.34-1.29C182.15,153.35,182.5,153,182.88,152.73Zm-4.52,6.16a22.4,22.4,0,0,1,2-1.74.56.56,0,0,1,.52,0c.41.21.78.48,1.17.72a1.29,1.29,0,0,1,.3,2.24,8.05,8.05,0,0,0-2.39,2.71c-.75-1.08-1.4-1.93-1.92-2.86C177.92,159.73,178.13,159.14,178.36,158.89Zm3.25,5c.15-.37.36-.72.59-1.18a9.15,9.15,0,0,1,.8.6.9.9,0,0,1-.35,1.6c-.4.13-1,.29-1.25.1C180.92,164.7,181.47,164.28,181.61,163.91Zm1.17,2.71a10.16,10.16,0,0,1,1.76-.53.62.62,0,0,1,.55.26,13.79,13.79,0,0,1,.47,1.45,17,17,0,0,1-2.56.32c-.23,0-.5-.6-.65-1C182.31,167,182.59,166.69,182.78,166.62Zm2.66-4.89c-.71.4-1.3.57-1.85-.25a5.21,5.21,0,0,0,1.06-2.81,2.09,2.09,0,0,1,2.08-2c.13,0,.36.18.37.3.13,1.06.27,2.12.3,3.19,0,.24-.32.55-.57.74A12.88,12.88,0,0,1,185.44,161.73Zm2.55.47.3,1.05L187,162.8v-.2Zm-.43,2.73c.3.87.23,1.13-.46,1.43l-.51-1.38Zm-.34,7.71c.16-.74.34-1.48.53-2.32a3.16,3.16,0,0,1,2,2.17c.08.35,0,.52-.37.56-.54,0-1.08.16-1.63.2S187.11,173.1,187.22,172.64Zm.76-20a16.37,16.37,0,0,1-1.88-1.75.67.67,0,0,1,.14-.62c.32-.13.82-.31,1-.16a16.4,16.4,0,0,1,1.65,1.58,3.1,3.1,0,0,1,.27.31C189.2,152.49,188.37,152.94,188,152.63Zm-13.33-8.29a2.63,2.63,0,0,1-.5-.84c0-.19.28-.43.53-.79.35.37.79.71.74.8A4,4,0,0,1,174.65,144.34Zm1,2.27c-.08-.08,0-.4.14-.59s.25-.38.37-.57a1.11,1.11,0,0,1,1.56-.5c.37.17.81.19,1.17.37s.57.42.55.6c0,.39-.22.81-.77.79-.25,0-.5,0-.75,0v-.11c-.54.08-1.08.19-1.62.23A.91.91,0,0,1,175.61,146.61Zm-45,51.07c-.25-3.64,2-6.44,6.07-6.74a6,6,0,0,1,6.23,5.75,6.13,6.13,0,0,1-6,6.59A6,6,0,0,1,130.59,197.68Zm17.3,20.09a35.82,35.82,0,0,1-14.33-3,15.39,15.39,0,0,0,3.67.32,17,17,0,0,0,10.25-3.75,16.42,16.42,0,0,0,5.24-6.91,16.93,16.93,0,0,0-.21-13.09,15,15,0,0,0-5.7-6.42,30.59,30.59,0,0,1-4.8-4,16.53,16.53,0,0,1-3-4.65,19.13,19.13,0,0,1-1.85-9.8,20.5,20.5,0,0,1,6.65-13.93,22.81,22.81,0,0,1,8.39-4.76c.14-.05.55-.16.84-.24l.46.07a35.28,35.28,0,0,1-5.64,70.17Zm35.62-47.45a.65.65,0,0,1,0-.39,2.61,2.61,0,0,1,2.22-.48.65.65,0,0,1,.15.54c-.22,1-.45,2-.75,3,0,.2-.39.31-.73.55C184.08,172.38,183.79,171.35,183.51,170.32Zm1,19.94c.11-.65.22-1.25.3-1.84,0-.11,0-.22,0-.33s0-.27.06-.36.17-.25.6-.36C186.32,188.58,186,189.67,184.54,190.26Zm1.14-6.33-.23-.08c0-.44-.07-.87-.12-1.55.43.26.93.49.91.57A5.4,5.4,0,0,1,185.68,183.93Zm.64-2.9a1.18,1.18,0,0,1-1.07-.93,2.57,2.57,0,0,1-.08-.65c0-.15,0-.3,0-.45,0-.86-.09-1.73-.14-2.59l.3-.12c.67,1,1.35,2.08,2,3.13a1.06,1.06,0,0,1,.2.57,2.45,2.45,0,0,1-.24,1.14C187.21,181.26,186.66,181.08,186.32,181Zm1.31,5.83c-1.14-.66-.95-1.72.37-2.65C188.74,185.35,188.65,186,187.63,186.86Zm.92-9a22.51,22.51,0,0,1-1.51-2.24c-.39-.68-.25-.87.51-1l1.7-.21c.64-.07.92.18,1.08.91-.4.84-.77,1.68-1.2,2.5C189.09,178,188.63,178,188.55,177.91Zm4.5-1.47a16.83,16.83,0,0,1-.72,1.77c-.6,1.29-1.22,2.57-1.85,3.84-.24.48-.52.93-.79,1.43-.82-.79-.77-.94-.4-1.75.87-1.88,1.66-3.8,2.47-5.7.15-.35.21-.82.76-.67A.76.76,0,0,1,193.05,176.44Zm1.4-3.41c-.39,1.39-1.18,1.67-2.32.8a.68.68,0,0,1-.25-.52,22.9,22.9,0,0,1,.57-2.31.45.45,0,0,1,.8-.22c.58.47,1.26.85,1.34,1.66C194.54,172.68,194.5,172.85,194.45,173Zm1.39-7.11c-.22-.3-.43-.6-.66-.93C196,164.73,196.17,164.88,195.84,165.92Zm-1.8-3.39a5.19,5.19,0,0,1,.57-1.57,22.87,22.87,0,0,1,1.32-1.91c.13,1.24.29,2.54.41,3.83,0,.5-.23.76-.77.64a5.69,5.69,0,0,0-.81-.13A.7.7,0,0,1,194,162.53Zm0,3.73c.32.57.58,1,.8,1.41a4.2,4.2,0,0,1,.46,1.13,2.52,2.52,0,0,1-.11,1.15c0,.07-.5.08-.72,0s-.47-.36-.73-.48c-1.1-.54-1.25-1.34-.43-2.28C193.53,167,193.71,166.7,194.05,166.26ZM205.5,134.7c.27.84.53,1.69.79,2.53l-.18.17-3.21-3.46c.13-.12.2-.21.23-.2.73.22,1.46.45,2.18.7A.4.4,0,0,1,205.5,134.7Zm-1.18-5.15c.8.28.59,1,.83,1.59a1.37,1.37,0,0,1,0,.41c0,.8-.3,1-1.06.79a16.73,16.73,0,0,1-1.7-.68.72.72,0,0,1-.34-.51A1.84,1.84,0,0,1,204.32,129.55Zm-3.13,5.88c1.54.49,4.08,4.31,4.72,7.07-.65.17-.86,0-1-.65a24.38,24.38,0,0,0-.79-2.32,8.82,8.82,0,0,0-2.48-2.75C201.16,136.37,200.92,136,201.19,135.43Zm-2.29,2.73c1.24-.5,1.23-.52,2.17.46a5.52,5.52,0,0,1,1.65,2.78,2.29,2.29,0,0,0-2.55.86c-.13-.17-.25-.26-.29-.38-.43-1-.83-2-1.27-3C198.44,138.49,198.5,138.33,198.9,138.16Zm-1.26,2.3a14.44,14.44,0,0,1,.79,2.38c.18.61-.28.75-.74.89s-.59-.23-.66-.54c-.32-1.34-.62-2.68-1-4.17A2.44,2.44,0,0,1,197.64,140.46Zm-3.45-.35a29.12,29.12,0,0,1,1.27,2.93.6.6,0,0,1-.53.9c-.55.09-.82-.1-.88-.64,0-.22-.07-.45-.11-.67-.18-1-.37-2-.57-3.12C193.65,139.71,194.06,139.84,194.19,140.11Zm-.42,15c0,.24-.17.7-.36.75-.91.26-1.85.41-2.75.6l-.2-.42c-.49-1.23,0-2,1.36-2,.46,0,.91.09,1.37.11C193.81,154.24,193.72,154.77,193.77,155.12Zm-.69-3.24a.55.55,0,0,1,.07.5.51.51,0,0,1-.37.3,9,9,0,0,1-1-.09l0-.17a8.33,8.33,0,0,1,.9-.55A.51.51,0,0,1,193.08,151.88Zm-2.33-.95a1.84,1.84,0,0,1-1.39-1.56c.1-1.15,1.12-.46,1.67-.74.34-.17.88.72.9,1.44C192,150.48,191.36,150.91,190.75,150.93Zm.23-5.87c.39.42.76.94.37,1.37a2.19,2.19,0,0,1-1.55.77,3.33,3.33,0,0,1-2.85-1.83,7.24,7.24,0,0,0-.92-1.18C187.94,143.78,189.61,143.56,191,145.06Zm-3.32-5.1a17.3,17.3,0,0,1,2.28.43,1,1,0,0,1,.59.68c0,.49-.09,1.09-.71,1.26a8.14,8.14,0,0,1-1.22.15v0h-.21c-1.84-.09-1.83-.1-1.56-1.87C186.91,140,187.22,139.89,187.66,140Zm-.07-9.94a3.32,3.32,0,0,1-.83-.3,1.56,1.56,0,0,0-2.06.46c-.35.45-.62.95-.93,1.43a1.24,1.24,0,0,1-1.68.31.68.68,0,0,1-.12-.56,13.29,13.29,0,0,1,.64-1.73.88.88,0,0,1,.58-.4c.54-.1,1.09-.11,1.63-.16l0,.15c.62-.09,1.25-.21,1.88-.26s1,0,1.24.56C188.1,129.88,188,130.07,187.59,130Zm3-4.84a7.08,7.08,0,0,1-1.82,1.13,18.77,18.77,0,0,1-2.88.76c-1.07.21-1.17.09-.78-.91a4.82,4.82,0,0,0-.07-3.58l.48-.18c1-.4,1.31-.22,1.43.91a2.15,2.15,0,0,0,.32,1,1.3,1.3,0,0,0,.84.5c.5,0,.78-.38.82-.85a9,9,0,0,0,0-1.64c0-.46.2-.75.59-.72a1,1,0,0,1,.76.49,15.23,15.23,0,0,1,.65,1.79A1.08,1.08,0,0,1,190.55,125.18Zm1-10.65-.24,0-.64-.91.21-.26c.27.13.61.2.78.41S191.58,114.28,191.53,114.53Zm2.12,7a.89.89,0,0,1-.65.55c-.16,0-.39-.37-.55-.61a2.2,2.2,0,0,1-.19-.61c.15-.17.29-.46.52-.57s.46.17.57.35A1.35,1.35,0,0,1,193.65,121.48Zm.86-9c-.13.17-.59.3-.7.2-1-.79-1.91-1.64-2.85-2.49,0,0,0-.12,0-.23.35-.14.64-.25.93-.38s.64-.22.93.2c.12.18.56.19.85.2.49,0,.92.07,1.08.63A2,2,0,0,1,194.51,112.52Zm1.47-3.81a13.1,13.1,0,0,1,1.58-.22c.12,0,.39.37.35.45a1.31,1.31,0,0,1-.59.67c-.19.07-.52-.12-.75-.26A4.46,4.46,0,0,1,196,108.71Zm3.23,4.63c-.33.07-.68.09-.88.12l-.48,0c-1.1-.07-1.3-.31-1.06-1.39a.69.69,0,0,1,.45-.38c.65-.15,1.33-.25,2-.37.12.61.25,1.22.35,1.84C199.58,113.18,199.35,113.31,199.21,113.34Zm3.36-.4c-.1.23-.54.33-1,.56v-1.66l.19,0C201.91,112.31,202.86,112.22,202.57,112.94Zm-2-3.47a.56.56,0,0,1,.13-.93,6.52,6.52,0,0,1,1.49-.39c.08.41.17.83.26,1.28C201.7,109.6,201.11,110,200.53,109.47Zm4.8,5.8a14.92,14.92,0,0,1-2.79,1.12c-.31.09-.74-.27-1.11-.43v-.28a10,10,0,0,1,1.07-.43c.37-.1.78-.07,1.15-.17.59-.15,1-.53,1.13-1.46.43.29.89.45.94.68A1.15,1.15,0,0,1,205.33,115.27Zm-.06-3.81c-.59-.2-.69-.57-.57-1.17a5,5,0,0,0-.09-1.53c0-.37.08-.56.45-.59l.14,0c1.23-.16,1.5.07,1.55,1.33a10.08,10.08,0,0,1-.26,1.33A.92.92,0,0,1,205.27,111.46Zm3.6,5.14c-.73.39-1.48.75-2.22,1.11-.07-.11-.13-.23-.2-.35.34-.26.66-.54,1-.77a4.76,4.76,0,0,1,1-.45.45.45,0,0,1,.4,0C208.91,116.27,208.92,116.57,208.87,116.6Zm.64-3.59c-.15.3-.66.42-1,.61-1.05-.14-1.21-.42-.73-1.3.2-.37.36-.77.57-1.15a8.47,8.47,0,0,1,.54-.79c.28.2.66.35.83.63A2,2,0,0,1,209.51,113Zm3.11.13c-.12.25-.48.39-.73.59l-.25-.18c.07-.6.13-1.2.23-1.79,0-.11.24-.29.32-.27.25.07.68.22.68.35A3.24,3.24,0,0,1,212.62,113.14Zm.75-3.54c0-.77.54-1.26,1.71-1.3.09.1.38.26.42.48.11.54-.77,1.52-1.3,1.52S213.39,110.12,213.37,109.6Zm2.62,4c-.27.48-.79.35-1.36.09l.79-1.12.24,0C215.78,112.87,216.11,113.34,216,113.56Zm2.56-1.55a.69.69,0,0,1-.53.18,1.76,1.76,0,0,1-1-2.28c.18-.37.27-.78.48-1.13a4,4,0,0,1,.6-.64,1.19,1.19,0,0,1,1.16.9A2.24,2.24,0,0,1,218.55,112Zm1.76,2c-.08-.1-.33-.29-.35-.5a1,1,0,0,1,1.06-1.05c.36,0,.73,0,.73.5S221.15,114,220.31,114Zm3.83,2.3c-.26.16-.72.3-.91.18a1.17,1.17,0,0,1-.34-.9c0-1.29.75-1.64,2.29-1.13A2.42,2.42,0,0,1,224.14,116.34Zm.92-6.12a20.4,20.4,0,0,1-.9,1.88,14.39,14.39,0,0,0-1.52-1,.73.73,0,0,1-.5-.83c.09-1.65.37-1.88,2-1.6C225.15,108.83,225.43,109.25,225.06,110.22Zm-1.75-3.77c-2.05-.11-4.1-.22-6.14-.39-.83-.07-.9-.24-.6-1a7.75,7.75,0,0,1,4.5-4.42c3.41-1.44,7-1.89,10.66-2.39.85-.12,1.69-.32,2.54-.49l.15.17a4.11,4.11,0,0,1-.62.63c-1.28.87-2.58,1.72-3.88,2.56a1.57,1.57,0,0,0-.9,1.56c0,.33.13.54.53.53,5.2-.07,10.24-.83,14.84-3.47.38-.22.74-.49,1.15-.76.16,1.47-1.67,4.2-3.12,4.72-.16-.33-.32-.68-.5-1a1,1,0,0,0-1.39-.44c-1.65.87-3.26,1.83-5,2.55a18.93,18.93,0,0,1-4.07,1.15A35,35,0,0,1,223.31,106.45Zm11.12,5c-.26.45-.48.91-.76,1.32-.08.12-.35.1-.52.14,0-.17-.13-.35-.08-.49a7.13,7.13,0,0,1,.51-1.25c.08-.16.32-.24.48-.36Zm-4.5,1.26c-.16,0-.29-.23-.44-.36a14.57,14.57,0,0,1,.45-1.4c.36-.8.65-.87,1.31-.32a.61.61,0,0,1,.22.33C231.58,111.55,230.53,112.76,229.93,112.71Zm-3.36-.39c0-.94.58-2,1.16-2.1C227.82,111.49,227.38,112.33,226.57,112.32Zm21.55-8a31.06,31.06,0,0,1-5.42,7.5l-2,2.14a.68.68,0,0,1-.21.17c-1,.36-1.5,1.29-2.35,1.83a1.21,1.21,0,0,0-.56.89c.07.51.6.45,1,.42l3.25-.27a10,10,0,0,1-1.29,1.19,26.27,26.27,0,0,1-7.88,3.69,10.37,10.37,0,0,1-5.36,0,4.91,4.91,0,0,1-.78-.35l0-.2,2.07-1.12a22.75,22.75,0,0,0,6.2-4.79c.56-.62,1.14-1.23,1.71-1.85a34.73,34.73,0,0,0,4.42-6.4,1.12,1.12,0,0,1,.45-.38c1.45-.75,2.93-1.46,4.37-2.24,1-.53,1.91-1.14,3-1.82C248.51,103.34,248.35,103.84,248.12,104.32Z"/><path class="cls-1" d="M204.79,132.28c.17-.13.24-.39.24-.79,0-.1,0-.21,0-.31,0,.1,0,.21,0,.31C205,131.89,205,132.15,204.79,132.28Z"/><path class="cls-1" d="M202.12,108.72l-.13-.63-.28.06.28-.06Z"/><path class="cls-1" d="M116.31,360.63a.69.69,0,0,0,.55.69,2.59,2.59,0,0,1,.5.22c.14.09.21.18.21.28,0,.33-.15.49-.46.49h-4.44c-.2,0-.33,0-.36-.12a.83.83,0,0,1-.06-.37c0-.1.08-.19.24-.28a3.67,3.67,0,0,1,.53-.22.7.7,0,0,0,.57-.69v-8.52a3.23,3.23,0,0,1-.6.18c-.18,0-.38.07-.61.13a.38.38,0,0,1-.39-.1.67.67,0,0,1-.23-.37.7.7,0,0,1,0-.45.56.56,0,0,1,.43-.32l1-.32c.31-.09.59-.19.84-.28l.7-.26c.22-.08.45-.15.68-.21l.22,0a.86.86,0,0,1,.28,0,.54.54,0,0,1,.23.18.79.79,0,0,1,.1.42Z"/><path class="cls-1" d="M120.8,362.55a1.32,1.32,0,0,1-.57-.12.58.58,0,0,1-.33-.32.45.45,0,0,1,.1-.49.68.68,0,0,1,.45-.17,5,5,0,0,0,3.5-1.16,4.55,4.55,0,0,0,1.2-3.44,3.3,3.3,0,0,1-1.58.91,7,7,0,0,1-1.76.22,3.43,3.43,0,0,1-1.4-.28,3.59,3.59,0,0,1-1.13-.77,3.81,3.81,0,0,1-.76-1.13,3.32,3.32,0,0,1-.29-1.36,5.07,5.07,0,0,1,.27-1.66,3.73,3.73,0,0,1,.84-1.37,4,4,0,0,1,1.48-.92,6,6,0,0,1,2.15-.34,5.34,5.34,0,0,1,2.25.44,4.38,4.38,0,0,1,1.58,1.17,4.75,4.75,0,0,1,.92,1.68,6.18,6.18,0,0,1,.28,2,10.07,10.07,0,0,1-.48,2.91,6,6,0,0,1-1.33,2.25A6.22,6.22,0,0,1,124,362,8.65,8.65,0,0,1,120.8,362.55Zm.15-8.62a3.43,3.43,0,0,0,.14,1,2.74,2.74,0,0,0,.41.84,2.07,2.07,0,0,0,.67.58,1.83,1.83,0,0,0,.93.22,1.52,1.52,0,0,0,.83-.24,2.29,2.29,0,0,0,.64-.64,2.8,2.8,0,0,0,.41-.83,3,3,0,0,0,.13-.85,4.12,4.12,0,0,0-.11-1,2.64,2.64,0,0,0-.35-.86,1.9,1.9,0,0,0-.66-.6,2,2,0,0,0-1-.23,1.46,1.46,0,0,0-.84.25,2.47,2.47,0,0,0-.64.65,2.77,2.77,0,0,0-.4.85A3.22,3.22,0,0,0,121,353.93Z"/><path class="cls-1" d="M131.24,362.55a1.39,1.39,0,0,1-.57-.12.58.58,0,0,1-.33-.32.44.44,0,0,1,.11-.49.64.64,0,0,1,.44-.17,5,5,0,0,0,3.5-1.16,4.55,4.55,0,0,0,1.2-3.44,3.3,3.3,0,0,1-1.58.91,7,7,0,0,1-1.76.22,3.43,3.43,0,0,1-1.4-.28,3.59,3.59,0,0,1-1.13-.77,3.81,3.81,0,0,1-.76-1.13,3.32,3.32,0,0,1-.29-1.36,5.07,5.07,0,0,1,.27-1.66,3.73,3.73,0,0,1,.84-1.37,4,4,0,0,1,1.48-.92,6,6,0,0,1,2.15-.34,5.42,5.42,0,0,1,2.26.44,4.43,4.43,0,0,1,1.57,1.17,4.6,4.6,0,0,1,.92,1.68,6.18,6.18,0,0,1,.28,2,10.07,10.07,0,0,1-.48,2.91,5.9,5.9,0,0,1-1.33,2.25A6.14,6.14,0,0,1,134.4,362,8.65,8.65,0,0,1,131.24,362.55Zm.15-8.62a3.43,3.43,0,0,0,.14,1,2.74,2.74,0,0,0,.41.84,2.07,2.07,0,0,0,.67.58,1.83,1.83,0,0,0,.93.22,1.52,1.52,0,0,0,.83-.24,2.29,2.29,0,0,0,.64-.64,2.8,2.8,0,0,0,.41-.83,3,3,0,0,0,.14-.85,4.69,4.69,0,0,0-.11-1,2.89,2.89,0,0,0-.36-.86,1.9,1.9,0,0,0-.66-.6,2,2,0,0,0-1-.23,1.46,1.46,0,0,0-.84.25,2.47,2.47,0,0,0-.64.65,2.77,2.77,0,0,0-.4.85A3.22,3.22,0,0,0,131.39,353.93Z"/><path class="cls-1" d="M143.72,360.63a.69.69,0,0,0,.55.69,2.44,2.44,0,0,1,.51.22c.14.09.21.18.21.28,0,.33-.16.49-.46.49h-4.44c-.21,0-.33,0-.37-.12a.86.86,0,0,1-.05-.37c0-.1.08-.19.23-.28a3.37,3.37,0,0,1,.54-.22.7.7,0,0,0,.57-.69v-8.52a3.55,3.55,0,0,1-.61.18l-.61.13a.39.39,0,0,1-.39-.1.73.73,0,0,1-.23-.37.7.7,0,0,1,0-.45.56.56,0,0,1,.42-.32l1.05-.32c.3-.09.58-.19.83-.28l.71-.26a6.75,6.75,0,0,1,.68-.21l.22,0a.84.84,0,0,1,.27,0,.49.49,0,0,1,.23.18.71.71,0,0,1,.1.42Z"/><path class="cls-1" d="M2.27,335.24c-.31,0-.46-.16-.46-.49s.19-.38.57-.5a.7.7,0,0,0,.57-.7v-9.34a.7.7,0,0,0-.57-.69c-.38-.13-.57-.3-.57-.52a.41.41,0,0,1,.46-.47H6.54A.41.41,0,0,1,7,323c0,.21-.19.38-.57.5a.71.71,0,0,0-.57.71v9.34a.7.7,0,0,0,.57.7c.38.12.57.29.57.5s-.15.49-.46.49Zm8.84,0a1,1,0,0,1-.66-.22,13.51,13.51,0,0,1-1.38-1.76l-.76-1.08c-.32-.47-.64-.94-1-1.43s-.6-.94-.84-1.34a2.28,2.28,0,0,1-.35-.83,1.2,1.2,0,0,1,.24-.45l.63-.81.81-1,.8-1c.25-.31.46-.58.62-.81a1.28,1.28,0,0,0,.24-.46c0-.23-.19-.41-.52-.53s-.51-.3-.51-.52a.42.42,0,0,1,.48-.48h3.5c.31,0,.46.16.46.48l-.62.75c-.29.35-.59.67-.9,1-.59.58-1.09,1.12-1.49,1.59s-.76.94-1.08,1.38L10.37,330l1,1.55.76,1.1c.21.31.43.64.67,1a2.15,2.15,0,0,0,.88.56c.36.18.55.35.55.52a.45.45,0,0,1-.17.38.66.66,0,0,1-.44.13Z"/><path class="cls-1" d="M15.39,335.24c-.31,0-.46-.16-.46-.49s.19-.38.57-.5a.7.7,0,0,0,.57-.7v-9.34a.7.7,0,0,0-.57-.69c-.38-.13-.57-.3-.57-.52a.41.41,0,0,1,.46-.47H19.7a.42.42,0,0,1,.46.47c0,.21-.2.38-.59.52a.7.7,0,0,0-.57.69v9.34a.7.7,0,0,0,.57.7c.39.14.59.3.59.5s-.16.49-.46.49Z"/><path class="cls-1" d="M26.47,335.24a5,5,0,0,1-4.24-1.91,7.1,7.1,0,0,1-1.41-4.46,7.24,7.24,0,0,1,1.32-4.38,4.78,4.78,0,0,1,4.09-2,4.12,4.12,0,0,1,.51,0l.83.14a4.89,4.89,0,0,0,.77.09.4.4,0,0,1,.13-.1l.25-.14.25-.11a.33.33,0,0,1,.14-.05c.33,0,.64.4.94,1.19a5.17,5.17,0,0,1,.4,1.6.39.39,0,0,1-.18.35,1,1,0,0,1-.5.11l-.77-.69a6.9,6.9,0,0,0-.7-.54,3.42,3.42,0,0,0-.88-.43,2.86,2.86,0,0,0-1-.16q-1.41,0-2.13,1.74a8.27,8.27,0,0,0-.49,3.09,8.44,8.44,0,0,0,.55,3.41,2.67,2.67,0,0,0,2.55,1.74,2.62,2.62,0,0,0,.86-.14,3.94,3.94,0,0,0,.87-.39l1.17-.72a1.91,1.91,0,0,1,.53-.27.46.46,0,0,1,.29.06.57.57,0,0,1,.18.2.6.6,0,0,1,.08.21.73.73,0,0,1,0,.25,1.39,1.39,0,0,1-.15.39,2.18,2.18,0,0,1-.33.42,2.8,2.8,0,0,1-.52.38c-.21.12-.46.25-.75.38A6.13,6.13,0,0,1,26.47,335.24Z"/><path class="cls-1" d="M32,335.24c-.31,0-.46-.16-.46-.49s.19-.38.57-.5a.7.7,0,0,0,.57-.7v-9.34a.7.7,0,0,0-.57-.69c-.38-.13-.57-.3-.57-.52a.41.41,0,0,1,.46-.47h4.28c.3,0,.45.16.45.47s-.19.38-.57.5a.71.71,0,0,0-.56.71v9.34a.7.7,0,0,0,.56.7c.38.12.57.29.57.5s-.15.49-.45.49Zm8.84,0a1,1,0,0,1-.66-.22,12.94,12.94,0,0,1-1.37-1.76l-.76-1.08c-.33-.47-.65-.94-1-1.43s-.59-.94-.83-1.34a2.18,2.18,0,0,1-.36-.83,1.13,1.13,0,0,1,.25-.45c.16-.22.37-.49.62-.81l.81-1,.81-1c.25-.31.45-.58.61-.81a1.28,1.28,0,0,0,.24-.46c0-.23-.18-.41-.51-.53s-.52-.3-.52-.52a.42.42,0,0,1,.48-.48h3.5c.31,0,.46.16.46.48l-.62.75a10.45,10.45,0,0,1-.9,1c-.59.58-1.08,1.12-1.49,1.59s-.76.94-1.08,1.38L40.13,330l1,1.55c.28.42.53.79.75,1.1l.67,1a2.15,2.15,0,0,0,.88.56c.37.18.55.35.55.52a.44.44,0,0,1-.16.38.71.71,0,0,1-.45.13Z"/><path class="cls-1" d="M49.77,335.37A15.53,15.53,0,0,1,47,335.1c-1.41-.26-2.11-.62-2.11-1.07q0-.11.42-.42a1,1,0,0,0,.42-.81v-8c0-.22-.18-.39-.55-.5s-.53-.31-.53-.55.11-.32.34-.46a3.92,3.92,0,0,1,.86-.35,8.62,8.62,0,0,1,1.16-.27c.42-.07.82-.13,1.21-.17s.73-.08,1-.1.52,0,.64,0a9.65,9.65,0,0,1,1.58.14A5.14,5.14,0,0,1,53,323a3.15,3.15,0,0,1,1.11.92,2.29,2.29,0,0,1,.43,1.43,2.05,2.05,0,0,1-.17.85,3.34,3.34,0,0,1-.46.77,3.27,3.27,0,0,1-.67.61,2.94,2.94,0,0,1-.81.41v.22a8.54,8.54,0,0,1,1,.51,3.81,3.81,0,0,1,.86.67,3.31,3.31,0,0,1,.59.88,2.52,2.52,0,0,1,.23,1.12,4.51,4.51,0,0,1-.35,1.86,3,3,0,0,1-1,1.23,4.61,4.61,0,0,1-1.67.68A11.07,11.07,0,0,1,49.77,335.37Zm-.47-7q0-.12.33-.36a7,7,0,0,1,.88-.5,2,2,0,0,0,.85-.8,2.2,2.2,0,0,0,.27-1.09,2.27,2.27,0,0,0-.1-.67,2,2,0,0,0-.26-.61,1.32,1.32,0,0,0-.46-.45,1.22,1.22,0,0,0-.67-.18,1.81,1.81,0,0,0-1,.3,1,1,0,0,0-.44.86V333a.76.76,0,0,0,.15.48,1,1,0,0,0,.38.31,2,2,0,0,0,.5.18,2.44,2.44,0,0,0,.53.05,1.84,1.84,0,0,0,.88-.19,1.71,1.71,0,0,0,.61-.52,2.32,2.32,0,0,0,.35-.78,4.21,4.21,0,0,0,.11-1,2.58,2.58,0,0,0-.38-1.45,2.41,2.41,0,0,0-1-.87c-.5-.23-.87-.41-1.12-.54S49.3,328.44,49.3,328.34Z"/><path class="cls-1" d="M55.68,329a8,8,0,0,1,.41-2.59,5.71,5.71,0,0,1,1.22-2.05A5.57,5.57,0,0,1,59.26,323a6.71,6.71,0,0,1,2.66-.5,6.85,6.85,0,0,1,2.68.5,5.56,5.56,0,0,1,2,1.36,5.69,5.69,0,0,1,1.21,2.05,8.2,8.2,0,0,1,0,5.18,5.69,5.69,0,0,1-1.21,2,5.56,5.56,0,0,1-2,1.36,6.85,6.85,0,0,1-2.68.49,6.71,6.71,0,0,1-2.66-.49,5.57,5.57,0,0,1-1.95-1.36,5.71,5.71,0,0,1-1.22-2A8,8,0,0,1,55.68,329Zm9.56-.06a10,10,0,0,0-.16-1.8,5.84,5.84,0,0,0-.55-1.62,3.41,3.41,0,0,0-1-1.17,3,3,0,0,0-3.16,0,3.41,3.41,0,0,0-1,1.17,5.83,5.83,0,0,0-.54,1.62,10.93,10.93,0,0,0-.15,1.8,11.69,11.69,0,0,0,.15,1.87,5.92,5.92,0,0,0,.54,1.65,3.54,3.54,0,0,0,1,1.18,2.92,2.92,0,0,0,3.16,0,3.51,3.51,0,0,0,1-1.2,6,6,0,0,0,.55-1.64,10.15,10.15,0,0,0,.16-1.81Z"/><path class="cls-1" d="M75.57,335.24c-.44,0-.66-.16-.66-.49s.22-.38.64-.5a.53.53,0,0,0,.41-.51,1,1,0,0,0-.09-.26l-.25-.5c-.11-.21-.22-.42-.36-.66s-.27-.45-.41-.67-.28-.43-.42-.62a3.2,3.2,0,0,0-.36-.45c-.12.16-.27.35-.43.58a8.07,8.07,0,0,0-.53.85,5,5,0,0,0-.73,1.73.52.52,0,0,0,.37.51c.41.12.62.29.62.5s-.22.49-.66.49h-3.3a.73.73,0,0,1-.49-.14.5.5,0,0,1-.16-.35c0-.06.07-.15.21-.26l.47-.37c.19-.13.37-.28.55-.43a1.86,1.86,0,0,0,.43-.47L73.13,329c-.27-.46-.51-.89-.74-1.27s-.45-.75-.66-1.09l-.64-1-.69-1.05-.31-.33-.47-.46a3.67,3.67,0,0,1-.43-.47A.62.62,0,0,1,69,323a.33.33,0,0,1,.21-.31,1,1,0,0,1,.53-.11h4.18c.44,0,.66.16.66.47s-.21.34-.64.5q-.31.11-.36.3a.77.77,0,0,0,0,.44,2.28,2.28,0,0,0,.28.53l.38.56.47.72a4.68,4.68,0,0,0,.41.57,3.86,3.86,0,0,0,.29-.51c.1-.2.22-.41.35-.63s.24-.44.34-.62a1.9,1.9,0,0,0,.2-.52.77.77,0,0,0-.34-.82c-.41-.13-.62-.29-.62-.5s.22-.48.66-.48h3.23a.77.77,0,0,1,.52.17q.2.17,0,.48a1.4,1.4,0,0,1-.27.33l-.35.32-.41.41a4.37,4.37,0,0,0-.44.62,6.8,6.8,0,0,1-.39.56c-.18.24-.38.51-.59.81l-.66.95c-.23.33-.43.66-.62,1,.37.65.7,1.21,1,1.69s.54.92.78,1.3.44.71.64,1,.39.57.59.84a7.12,7.12,0,0,0,.62.76q.34.38.66.75a.43.43,0,0,1,.09.46c-.06.17-.21.25-.46.25Z"/><path class="cls-1" d="M81.68,335.24c-.3,0-.46-.16-.46-.49s.19-.38.57-.5a.7.7,0,0,0,.57-.7v-9.34a.7.7,0,0,0-.57-.69c-.38-.13-.57-.3-.57-.52a.42.42,0,0,1,.46-.47H86a.41.41,0,0,1,.46.47c0,.21-.19.38-.58.52a.7.7,0,0,0-.57.69v9.34a.7.7,0,0,0,.57.7c.39.14.58.3.58.5s-.15.49-.46.49Z"/><path class="cls-1" d="M97.63,324.21c0,.55,0,1.2,0,1.94s0,1.51,0,2.3,0,1.58,0,2.36,0,1.48,0,2.1,0,1.14-.06,1.53-.08.61-.14.64a.78.78,0,0,1-.28.17,1.16,1.16,0,0,1-.37.07.92.92,0,0,1-.37,0,.63.63,0,0,1-.28-.2c-.49-.66-1-1.35-1.52-2.07s-1.05-1.43-1.61-2.15-1.13-1.44-1.72-2.16-1.18-1.41-1.78-2.08l0,6.93a.69.69,0,0,0,.57.68c.38.13.57.3.57.52s-.15.49-.46.49H87.3c-.31,0-.46-.16-.46-.49s.19-.38.57-.5a.7.7,0,0,0,.57-.7v-9.34a.7.7,0,0,0-.57-.69c-.38-.13-.57-.3-.57-.52s.15-.49.46-.49h2.53c.11,0,.3.14.58.43s.59.65,1,1.1.77.95,1.2,1.51l1.29,1.66c.42.55.82,1.06,1.2,1.54s.71.86,1,1.15a.18.18,0,0,1,0-.06.68.68,0,0,0,0-.21c0-.11,0-.28,0-.52s0-.55,0-1,0-.94,0-1.58,0-1.42,0-2.35q0-.46-.75-.75c-.25-.1-.37-.24-.37-.44s.15-.49.46-.49h2.9a.43.43,0,0,1,.48.49c0,.21-.19.37-.57.5A.7.7,0,0,0,97.63,324.21Z"/><path class="cls-1" d="M109.78,332.73h-.06l.2.08.24.08h.07l.19.46a1,1,0,0,1-.58.79,6.53,6.53,0,0,1-1.64.68c-.52.13-1,.24-1.55.32a9.48,9.48,0,0,1-1.42.12,6.14,6.14,0,0,1-2.53-.49,5.42,5.42,0,0,1-1.88-1.34,6.07,6.07,0,0,1-1.18-2,7.5,7.5,0,0,1-.42-2.55,6.75,6.75,0,0,1,.42-2.39,6,6,0,0,1,1.16-2,5.83,5.83,0,0,1,1.81-1.36,6.31,6.31,0,0,1,2.34-.6,4.72,4.72,0,0,1,.84,0l.79.12c.25,0,.46.08.65.09a.59.59,0,0,0,.38,0l.3-.21a.74.74,0,0,1,.42-.12c.15,0,.3.11.45.34a5.63,5.63,0,0,1,.43.91,9.36,9.36,0,0,1,.33.9,1.56,1.56,0,0,1,.07.51.47.47,0,0,1-.12.27.79.79,0,0,1-.24.21.55.55,0,0,1-.28.06.35.35,0,0,1-.24-.12l-.24-.25-.17-.14-.18-.11-.22-.22a3,3,0,0,0-1.15-.7,4.39,4.39,0,0,0-1.38-.23,2.23,2.23,0,0,0-1.5.52,3.91,3.91,0,0,0-1,1.3,7.12,7.12,0,0,0-.55,1.69,9.56,9.56,0,0,0-.17,1.68,9.27,9.27,0,0,0,.18,1.87,4.33,4.33,0,0,0,.62,1.54,3.09,3.09,0,0,0,1.13,1.05,3.5,3.5,0,0,0,1.74.39,2.84,2.84,0,0,0,.84-.1,1.18,1.18,0,0,0,.31-.25.58.58,0,0,0,.13-.37v-2.07a.68.68,0,0,0-.49-.72c-.48-.15-.72-.34-.72-.59a.37.37,0,0,1,.24-.36,1.26,1.26,0,0,1,.57-.11h3.32a1.26,1.26,0,0,1,.57.11.37.37,0,0,1,.24.36c0,.18-.21.36-.63.57a1.4,1.4,0,0,0-.33.31.8.8,0,0,0-.12.43Z"/><path class="cls-1" d="M120.52,329.12a2.31,2.31,0,0,1-.07.71c0,.14-.12.2-.21.2h-5c-.09,0-.16-.06-.21-.2a2.23,2.23,0,0,1-.08-.71c0-.6.1-.9.29-.9h5C120.43,328.22,120.52,328.52,120.52,329.12Z"/><path class="cls-1" d="M133.37,326.54a11.75,11.75,0,0,0-.76,1.08c-.25.41-.53.83-.81,1.27s-.59.88-.91,1.32a8.27,8.27,0,0,1-1,1.16,4.94,4.94,0,0,1-.61-.61c-.24-.28-.49-.59-.76-.93l-.79-1.06c-.27-.36-.52-.69-.74-1s-.41-.56-.58-.76-.27-.31-.32-.32a.29.29,0,0,0,0,.09,1.64,1.64,0,0,0,0,.27v6.5c0,.26.21.51.64.74l.35.2a.25.25,0,0,1,.14.26,1,1,0,0,1-.12.35.41.41,0,0,1-.35.14h-2.94c-.3,0-.46-.16-.46-.49,0-.13.19-.28.57-.48s.59-.45.59-.72v-9.34c0-.33-.2-.56-.59-.69s-.57-.3-.57-.52a1.18,1.18,0,0,0,.2-.31.3.3,0,0,1,.26-.18H126a2.23,2.23,0,0,1,.61.54c.24.27.51.6.79,1s.57.76.86,1.19l.83,1.18c.25.37.49.69.69,1a3.82,3.82,0,0,0,.46.53c.09,0,.21-.15.38-.37s.34-.48.54-.79.4-.63.6-1l.56-1c.17-.28.3-.52.4-.71a2.31,2.31,0,0,1,.15-.27c.56-.85,1-1.28,1.43-1.28H137c.31,0,.46.16.46.49,0,.13-.19.28-.57.48a.87.87,0,0,0-.55.73v9.34c0,.26.21.51.63.74l.34.16a.3.3,0,0,1,.15.3.61.61,0,0,1-.1.34.41.41,0,0,1-.36.15h-4.27c-.3,0-.44-.16-.44-.49,0-.13.19-.28.57-.48s.55-.43.55-.72Z"/><path class="cls-1" d="M148.8,331.54a3.1,3.1,0,0,1-.42,1.59,3.94,3.94,0,0,1-1.18,1.23,5.62,5.62,0,0,1-1.52.65,6.48,6.48,0,0,1-1.78.23,5.46,5.46,0,0,1-3.16-.92,3.22,3.22,0,0,1-1.52-2.78v-7.33a.7.7,0,0,0-.57-.69c-.38-.13-.57-.3-.57-.52a.41.41,0,0,1,.46-.47h4.28c.3,0,.45.16.45.47s-.19.39-.56.52a.7.7,0,0,0-.57.69v7.29a2.11,2.11,0,0,0,.66,1.62,2.4,2.4,0,0,0,1.7.62,2.9,2.9,0,0,0,1.94-.62,2.27,2.27,0,0,0,.72-1.82v-7.09a.7.7,0,0,0-.56-.69c-.37-.13-.55-.3-.55-.52s.15-.47.45-.47h3a.42.42,0,0,1,.47.47c0,.21-.19.38-.58.52a.78.78,0,0,0-.57.86Z"/><path class="cls-1" d="M157.31,335.24c-.34,0-.51-.16-.51-.49s.13-.35.38-.44a1.79,1.79,0,0,0,.66-.38.44.44,0,0,0,.15-.49l-.55-1.76a3.22,3.22,0,0,0-1.1-.11,3.13,3.13,0,0,1-.73.1,1.69,1.69,0,0,1-.63-.08.71.71,0,0,1-.4-.25.55.55,0,0,1-.11-.36.51.51,0,0,1,.28-.51,2.23,2.23,0,0,1,.84-.13h.67a.7.7,0,0,0,.54-.15q0-.22-.21-.78c-.12-.38-.25-.77-.4-1.19s-.28-.8-.42-1.15-.23-.59-.27-.7a13.88,13.88,0,0,0-.57,1.4c-.22.62-.49,1.37-.79,2.25a24.21,24.21,0,0,0-.76,2.37,5.64,5.64,0,0,0-.23,1.23.65.65,0,0,0,.49.64c.33.12.5.28.5.48s-.17.49-.52.49h-3c-.17,0-.27,0-.3-.14a1.27,1.27,0,0,1-.05-.39c.33-.26.64-.51.92-.75a2.05,2.05,0,0,0,.57-.74q.89-2.5,1.66-5t1.63-5a1,1,0,0,1,.41-.49,1.19,1.19,0,0,1,.61-.17,2.65,2.65,0,0,1,.81.14.9.9,0,0,1,.55.44c.59,1.68,1.17,3.35,1.76,5s1.18,3.33,1.76,5a1,1,0,0,0,.37.46l.77.56.46.33a.41.41,0,0,1,.2.3.43.43,0,0,1-.49.49Z"/><path class="cls-1" d="M173.07,324.56a2.55,2.55,0,0,1-.17.38l-.49,1.05c-.19.43-.41.9-.64,1.4s-.45,1-.64,1.39l-.49,1.07c-.13.28-.18.41-.17.38v3.32a.62.62,0,0,0,.44.68c.46.16.7.33.7.52s-.22.49-.65.49H167c-.44,0-.66-.16-.66-.49,0-.17.23-.34.69-.5.3-.08.44-.32.44-.7v-3.3a29.06,29.06,0,0,0-1.5-2.79,31.71,31.71,0,0,1-1.52-2.79,1.29,1.29,0,0,0-.31-.42c-.16-.17-.34-.34-.53-.51l-.53-.46a1,1,0,0,1-.27-.28.27.27,0,0,1,.09-.35.86.86,0,0,1,.5-.12h4.5c.42,0,.64.16.64.47s-.21.36-.63.48a.52.52,0,0,0-.36.51,2.64,2.64,0,0,0,.23.8c.15.4.33.83.53,1.29s.4.89.6,1.29.33.68.42.83c.11-.18.26-.46.47-.86s.4-.81.59-1.25.37-.84.52-1.22a3,3,0,0,0,.22-.84q0-.31-.54-.57c-.28-.11-.42-.26-.42-.44s.22-.48.64-.48h3.23c.44,0,.66.15.66.43q.06,0-.18.18l-.56.44c-.21.17-.42.35-.6.52A1.09,1.09,0,0,0,173.07,324.56Z"/><path class="cls-1" d="M190.42,325.26a5.17,5.17,0,0,1-.57-.43,3.49,3.49,0,0,1-.46-.51c-.26-.31-.88-.47-1.87-.47-.41,0-.61.17-.61.53v9.17a.7.7,0,0,0,.57.7q.57.18.57.51a.42.42,0,0,1-.48.48h-4.25c-.31,0-.46-.16-.46-.48a.4.4,0,0,1,.35-.44.92.92,0,0,0,.77-.95l0-9a.76.76,0,0,0-.1-.4.48.48,0,0,0-.4-.13h-.68a2.51,2.51,0,0,0-.55,0,1.4,1.4,0,0,0-.49.21,2,2,0,0,0-.5.48c-.38.49-.66.74-.84.74s-.48-.15-.48-.44a2.59,2.59,0,0,1,.41-1.1c.09-.19.18-.35.26-.5a3.33,3.33,0,0,1,.24-.39.83.83,0,0,1,.28-.25.91.91,0,0,1,.43-.09h7.74a1.3,1.3,0,0,1,1,.69,5,5,0,0,1,.66,1.64.17.17,0,0,1,0,.15.52.52,0,0,1-.14.16.5.5,0,0,1-.19.1A.16.16,0,0,1,190.42,325.26Z"/><path class="cls-1" d="M195.7,327.39h3.36a.33.33,0,0,0,.37-.37v-2.81a.7.7,0,0,0-.57-.69c-.38-.13-.57-.3-.57-.52a.41.41,0,0,1,.46-.47H203a.41.41,0,0,1,.46.47c0,.22-.19.39-.57.52a.7.7,0,0,0-.57.69v9.34a.7.7,0,0,0,.57.7c.38.12.57.29.57.5s-.15.49-.46.49h-4.27c-.31,0-.46-.16-.46-.49s.19-.39.57-.52a.69.69,0,0,0,.57-.68v-4.38c0-.21-.13-.33-.37-.35H195.7c-.24,0-.36.14-.36.35v4.38a.68.68,0,0,0,.56.68c.38.13.57.3.57.52s-.15.49-.46.49h-4.27c-.31,0-.46-.16-.46-.49s.19-.38.57-.5a.7.7,0,0,0,.57-.7v-9.34a.7.7,0,0,0-.57-.69c-.38-.13-.57-.3-.57-.52a.41.41,0,0,1,.46-.47H196a.41.41,0,0,1,.46.47c0,.22-.19.39-.57.52a.69.69,0,0,0-.56.69V327A.32.32,0,0,0,195.7,327.39Z"/><path class="cls-1" d="M210.84,335.24c-.34,0-.51-.16-.51-.49s.13-.35.38-.44a1.88,1.88,0,0,0,.66-.38.44.44,0,0,0,.15-.49l-.55-1.76a3.22,3.22,0,0,0-1.1-.11,3.14,3.14,0,0,1-.74.1,1.67,1.67,0,0,1-.62-.08.68.68,0,0,1-.4-.25A.55.55,0,0,1,208,331a.51.51,0,0,1,.28-.51,2.23,2.23,0,0,1,.84-.13h.67a.7.7,0,0,0,.54-.15q0-.22-.21-.78c-.12-.38-.25-.77-.4-1.19l-.42-1.15c-.14-.36-.23-.59-.28-.7a14.28,14.28,0,0,0-.56,1.4c-.22.62-.49,1.37-.79,2.25s-.61,1.77-.77,2.37a6.09,6.09,0,0,0-.22,1.23.65.65,0,0,0,.49.64c.33.12.5.28.5.48s-.18.49-.52.49h-3c-.17,0-.27,0-.3-.14a1.27,1.27,0,0,1-.05-.39c.33-.26.64-.51.92-.75a2.05,2.05,0,0,0,.57-.74q.88-2.5,1.66-5t1.62-5a1.06,1.06,0,0,1,.42-.49,1.19,1.19,0,0,1,.61-.17,2.65,2.65,0,0,1,.81.14.9.9,0,0,1,.55.44c.59,1.68,1.17,3.35,1.76,5s1.18,3.33,1.76,5a1,1,0,0,0,.37.46l.77.56c.17.13.32.24.46.33a.41.41,0,0,1,.2.3c0,.33-.16.49-.5.49Z"/><path class="cls-1" d="M217.08,335.24c-.31,0-.46-.16-.46-.49s.19-.38.57-.5a.7.7,0,0,0,.57-.7v-9.34a.7.7,0,0,0-.57-.69c-.38-.13-.57-.3-.57-.52a.41.41,0,0,1,.46-.47h4.31a.41.41,0,0,1,.46.47c0,.21-.2.38-.59.52a.7.7,0,0,0-.57.69v9.34a.7.7,0,0,0,.57.7c.39.14.59.3.59.5s-.15.49-.46.49Z"/><path class="cls-1" d="M235.22,335.24c-.31,0-.46-.16-.46-.49s.19-.38.57-.5a.7.7,0,0,0,.57-.7v-9.34a.7.7,0,0,0-.57-.69c-.38-.13-.57-.3-.57-.52a.41.41,0,0,1,.46-.47h4.28c.3,0,.45.16.45.47s-.19.38-.56.5a.71.71,0,0,0-.57.71v9.34a.7.7,0,0,0,.57.7c.37.12.56.29.56.5s-.15.49-.45.49Zm8.84,0a1,1,0,0,1-.66-.22,12.94,12.94,0,0,1-1.37-1.76l-.76-1.08c-.33-.47-.65-.94-1-1.43s-.59-.94-.83-1.34a2.18,2.18,0,0,1-.36-.83,1.13,1.13,0,0,1,.25-.45c.16-.22.37-.49.62-.81l.81-1,.81-1c.25-.31.45-.58.61-.81a1.28,1.28,0,0,0,.24-.46c0-.23-.18-.41-.51-.53s-.52-.3-.52-.52a.42.42,0,0,1,.48-.48h3.5c.31,0,.46.16.46.48l-.62.75a10.45,10.45,0,0,1-.9,1c-.59.58-1.08,1.12-1.49,1.59s-.76.94-1.08,1.38l1.55,2.31,1.05,1.55.75,1.1.67,1a2.23,2.23,0,0,0,.88.56c.37.18.55.35.55.52a.44.44,0,0,1-.16.38.69.69,0,0,1-.45.13Z"/><path class="cls-1" d="M249.07,329.36a1.57,1.57,0,0,1,0,.46.18.18,0,0,1-.16.12h-3.67q-.09,0-.15-.12a1.28,1.28,0,0,1,0-.46c0-.38.06-.57.2-.57h3.67Q249.07,328.79,249.07,329.36Z"/><path class="cls-1" d="M253.78,333.55a.69.69,0,0,0,.55.7,2.59,2.59,0,0,1,.5.22c.14.09.21.18.21.28,0,.33-.15.49-.45.49h-4.44c-.21,0-.34,0-.37-.12a.86.86,0,0,1-.06-.37c0-.1.08-.19.24-.28a3.67,3.67,0,0,1,.53-.22.7.7,0,0,0,.57-.7V325a3.12,3.12,0,0,1-.6.17l-.61.14a.4.4,0,0,1-.39-.1.66.66,0,0,1-.23-.38.67.67,0,0,1,0-.44.63.63,0,0,1,.43-.33c.39-.11.74-.21,1-.31l.84-.28.7-.26c.22-.08.45-.15.68-.21l.22,0a.86.86,0,0,1,.28,0,.54.54,0,0,1,.23.18.76.76,0,0,1,.1.42Z"/><path class="cls-1" d="M231.1,329.12a2.23,2.23,0,0,1-.08.71c-.05.14-.12.2-.21.2h-5c-.09,0-.16-.06-.21-.2a2.31,2.31,0,0,1-.07-.71c0-.6.09-.9.28-.9h5C231,328.22,231.1,328.52,231.1,329.12Z"/><path class="cls-1" d="M156.36,171.65a5.46,5.46,0,0,1-5.84-5.42,5.86,5.86,0,0,1,6.29-6.22c2.69,0,5.32,2.77,5.41,5.84A5.88,5.88,0,0,1,156.36,171.65Z"/><path class="cls-1" d="M134.57,273.43a11.75,11.75,0,0,0-11.64.51,10.65,10.65,0,0,0-4.37,7,15.6,15.6,0,0,0,1.67,11.58,8.21,8.21,0,0,0,3.85,3.54c1,.45,2.14.75,3.21,1.12h3a5.47,5.47,0,0,1,.58-.15,9.91,9.91,0,0,0,8.26-7.35,16.55,16.55,0,0,0-.33-11.23A9.26,9.26,0,0,0,134.57,273.43Zm-2.13,16.1a6.59,6.59,0,0,1-1.25,3.3,2.64,2.64,0,0,1-4.11.19c-1.08-1.06-1.19-2.45-1.42-3.77s-.22-2.69-.32-4a21.58,21.58,0,0,1,.92-7.45,3,3,0,0,1,2.66-2.38,2.36,2.36,0,0,1,2.14,1,7.35,7.35,0,0,1,1.42,3.95A35.21,35.21,0,0,1,132.44,289.53Z"/><path class="cls-1" d="M164,285.5c-.88-4.2-1.8-8.4-2.7-12.59a11.15,11.15,0,0,1-.41-4.41c.08-.41.2-.81.33-1.36-1.4.31-2.64.57-3.88.87a3.36,3.36,0,0,0-2.69,4.15,5.79,5.79,0,0,0,.93,0,1.45,1.45,0,0,1,1.74,1.17c.27.89.45,1.81.69,2.72.61,2.26.69,4.65,1.7,6.82a2.68,2.68,0,0,1,.07.87,2.74,2.74,0,0,1-.33-.25c-1.37-1.47-2.73-3-4.11-4.4-1.68-1.78-3.38-3.53-5.08-5.29-1-1.08-2.28-2-2.49-3.72a24.45,24.45,0,0,0-5.84,1.42,3.45,3.45,0,0,0-1.91,3.82c1.69.19,2,.44,2.34,2.18q.92,4.22,1.78,8.45c.45,2.23.91,4.47,1.28,6.72a17.83,17.83,0,0,1,0,2.65c1.32-.31,2.62-.55,3.87-.95a3.35,3.35,0,0,0,2.17-3.77c-.26,0-.53-.06-.8-.07a1.77,1.77,0,0,1-1.89-1.44c-.07-.31-.18-.61-.25-.92q-1.08-4.71-2.15-9.42a.61.61,0,0,1,0-.2c1.22,1.35,2.44,2.79,3.76,4.15,2,2,4.06,3.95,6,6,1,1.08,2.42,1.95,2.6,3.65a1.17,1.17,0,0,0,.31,0c1.56-.32,3.15-.58,4.69-1a2.78,2.78,0,0,0,2.32-2.14l.33-1.75a1.27,1.27,0,0,0-.33-.09A2,2,0,0,1,164,285.5Z"/><path class="cls-1" d="M51.66,244.72a3.32,3.32,0,0,0-.39-.69c-1-1.05-2-2.11-3-3.1a1.49,1.49,0,0,0-1.12-.38c-1,.19-1.95.52-3,.83a7.4,7.4,0,0,0,.51,1,2.07,2.07,0,0,1,0,2.82,16.4,16.4,0,0,1-2,2.2c-1.51,1.37-3.08,2.65-4.63,4a11.07,11.07,0,0,1-4.16,2.3,3.48,3.48,0,0,1-4.39-2.37,4.83,4.83,0,0,1,1.14-4.9c1.2-1.45,2.6-2.74,3.94-4.07a29.07,29.07,0,0,1,6.39-4.8C42,237,43,236.6,44,236.14a2.64,2.64,0,0,0-.14-.24c-1.3-1.47-2.58-3-3.89-4.41a8.15,8.15,0,0,0-1.4-1.29,3.63,3.63,0,0,0-3.71.45.7.7,0,0,0-.07.59,2,2,0,0,1-.74,2.61q-2.69,2.29-5.34,4.61A15.86,15.86,0,0,0,25.1,243a8.81,8.81,0,0,0-1,5.7,11.21,11.21,0,0,0,4.3,6.87A7.26,7.26,0,0,0,33,257.3a8.71,8.71,0,0,0,4.13-1.08c2.53-1.26,4.53-3.23,6.65-5C46.36,249,48.28,246,51.66,244.72Z"/><path class="cls-1" d="M208.62,261.52c-.12-.58-.45-.73-1-.53a2,2,0,0,1-1.89-.15c-.49-.34-1-.69-1.44-1.06a134.36,134.36,0,0,0-14.1-9.92,1.47,1.47,0,0,0-1.78,0q-2.16,1.57-4.26,3.22a2.14,2.14,0,0,0-.71,1.86,14.38,14.38,0,0,0,.3,1.82c.1.56.41.6.89.4,1.07-.45,1.35-.32,1.73.82s.66,2.29,1.07,3.4c1.89,5.13,3.81,10.26,5.76,15.49.77-.59,1.61-1.25,2.47-1.87a3.38,3.38,0,0,0,1.32-4.14c-.24-.76-.39-.88-1.12-.54a1,1,0,0,1-1.47-.4,4.93,4.93,0,0,1-.58-1.23,1,1,0,0,1,.26-.8c1.45-1.18,2.95-2.31,4.41-3.48a.82.82,0,0,1,1.22,0,22.51,22.51,0,0,1,2.22,2.56,14.27,14.27,0,0,1,1,2.23,4.81,4.81,0,0,0,.68-.36c1.45-1.15,2.88-2.32,4.34-3.46a2.55,2.55,0,0,0,.86-3.11C208.76,262,208.68,261.76,208.62,261.52Zm-16.25,3.6c-1.26-3.11-2.48-6.12-3.71-9.13l.15-.09,7.69,6Z"/><path class="cls-1" d="M24.5,229.7c.9.81,2,.46,3.06.18.62-.17.61-.31.28-.83-1-1.64-2-3.31-3-5a.7.7,0,0,1,.12-.69c1.12-.74,2.27-1.45,3.44-2.11a1.11,1.11,0,0,1,1.68.34,25.32,25.32,0,0,1,1.63,2.76c.27.5.08.91-.46,1.17a.67.67,0,0,0-.3.54,3.66,3.66,0,0,0,2.74,2.2,14.43,14.43,0,0,0,2.68-.45c.78-.18.84-.38.48-1.1a4.16,4.16,0,0,0-.23-.42q-3.53-6.12-7.07-12.23a3.8,3.8,0,0,0-.52-.62c-1-1.07-2.22-.84-3.45-.56-.46.11-.66.31-.54.81a1.61,1.61,0,0,1-.89,1.88c-3.37,2.06-6.71,4.17-10.1,6.21-1.93,1.16-3.84,2.42-6.13,2.81a1.23,1.23,0,0,0-.34.19c1.14,1.93,2.23,3.83,3.39,5.68a2.3,2.3,0,0,0,1.28,1.06,10.22,10.22,0,0,0,2.64-.11c.14,0,.38-.36.35-.49a2,2,0,0,1,1.12-2.45c1.6-1,3.2-2,4.78-2.94a.53.53,0,0,1,.85.2c.39.65.72,1.32,1.12,2A9,9,0,0,0,24.5,229.7Z"/><path class="cls-1" d="M117.83,274.89a12.89,12.89,0,0,0-4.84-2.48,11.36,11.36,0,0,0-7.59.24c-4.22,1.77-6.34,5.21-7.22,9.51a14.91,14.91,0,0,0,.17,8.06,8.48,8.48,0,0,0,3.23,4.47,15.06,15.06,0,0,0,7.79,2.3,4.8,4.8,0,0,0,3.73-1.44,3.22,3.22,0,0,0,1-2.52c-.27,0-.49.08-.72.1a26.69,26.69,0,0,1-3.33.2c-3.19-.21-5.06-2.15-5.09-5.33a23.09,23.09,0,0,1,1.64-8.91,6.42,6.42,0,0,1,2.13-3,3.57,3.57,0,0,1,3.68-.55c.91.39,1.17.79.71,1.7a3.77,3.77,0,0,0-.19.67c1.63-.08,3.21,0,4.34-1.37a7.16,7.16,0,0,1,.69-.76C118.28,275.46,118.22,275.22,117.83,274.89Z"/><path class="cls-1" d="M219.48,246.54c-.13.27-.26.48-.35.71a9.94,9.94,0,0,1-2.61,4,4.29,4.29,0,0,1-2,1,6.34,6.34,0,0,1-4.2-.88,22.6,22.6,0,0,1-7.39-6.6,4.19,4.19,0,0,1,.45-5.29c.71-.68,1.32-.66,1.92.07l.44.48c1.39-2,1.6-3.34.88-5.07-.35-.84-.41-.88-1.25-.56a12,12,0,0,0-6.82,6.3,10.56,10.56,0,0,0,1,10.82,17,17,0,0,0,8.08,6.45,8.92,8.92,0,0,0,8.35-.64,15.39,15.39,0,0,0,4.74-5.15,4.26,4.26,0,0,0,.4-3.81A2.62,2.62,0,0,0,219.48,246.54Z"/><path class="cls-1" d="M231.26,231.38a2.34,2.34,0,0,1-1.33.32,3.84,3.84,0,0,1-1.5-.61c-1.69-1.08-3.34-2.21-5-3.32l-5.55-3.66c-.88-.58-1-1-.52-2a12.18,12.18,0,0,1,.93-1.44c.74-1.07,1.48-2.19.92-3.54a19.39,19.39,0,0,0-1.58-2.6l-.22.08a12.36,12.36,0,0,1-.57,1.22c-1.54,2.49-3,5-4.65,7.43-1.36,2.06-2.84,4-4.28,6s-.12,4.73,1.33,5.71a1.68,1.68,0,0,0,.15-.3,16.46,16.46,0,0,1,2.53-4.68c.62-.89,1-.93,2-.46a7.55,7.55,0,0,1,1.1.7c1,.71,2,1.45,3.08,2.15,1.88,1.26,3.8,2.46,5.66,3.74s3.81,2.47,5.13,4.38a2.3,2.3,0,0,0,.46.33c1.19-1.8,2.33-3.58,3.53-5.33a3.15,3.15,0,0,0-.55-4.1A.73.73,0,0,0,231.26,231.38Z"/><path class="cls-1" d="M184.88,278c-1.25.33-1.84-.1-2.4-1.24q-2.94-6-5.84-12.09c-.51-1.07-.41-1.33.62-1.92s1.85-1,2.76-1.52a2.56,2.56,0,0,0,1.34-2.45c0-.82-.09-1.63-.13-2.57-.29.14-.43.2-.57.28-1.52.92-3,2-4.58,2.74-3.21,1.59-6.49,3-9.73,4.57a6.61,6.61,0,0,0-2.23,1.4c-1.16,1.37-.94,3-.62,4.78l.56-.39c1.21-.81,2.37-1.7,3.64-2.41,1.79-1,2.19-.82,3.08,1,1.83,3.75,3.7,7.49,5.49,11.27a26.46,26.46,0,0,1,1.26,3.39,22.21,22.21,0,0,1,.46,2.19l.58-.26,5.16-2.54a3.1,3.1,0,0,0,1.7-3.89C185.38,278.23,185,278,184.88,278Z"/><path class="cls-1" d="M54.41,272.47a12.33,12.33,0,0,1-4.68-2.36c-1.27-1-1.79-2-.61-3.62,3-4.17,5.89-8.37,8.87-12.53a9.75,9.75,0,0,1,1.62-1.44c.25-.22.5-.42.84-.7-1.94-1.33-3.75-2.6-5.59-3.83a1.85,1.85,0,0,0-1.94-.22,15.38,15.38,0,0,0-1.66,1c-.37.25-.56.57-.17,1a1.49,1.49,0,0,1,.13,1.84,10.2,10.2,0,0,1-.63,1.06c-2.57,3.58-5.16,7.15-7.71,10.75a12.43,12.43,0,0,1-3.06,3.2,6.12,6.12,0,0,1-.57.28c.78.49,1.34.79,1.86,1.16,2.7,1.93,5.38,3.87,8.07,5.81a4,4,0,0,0,6-1.14A7.29,7.29,0,0,0,54.41,272.47Z"/><path class="cls-1" d="M68.77,257.94a2.85,2.85,0,0,0-4.15,1,.82.82,0,0,0,0,.76,2,2,0,0,1,.13,2.53c-2.36,4.07-4.74,8.13-7.07,12.21a10.74,10.74,0,0,1-2.36,2.91,7.23,7.23,0,0,0-.56.62c.26.13.42.2.57.29q2.74,1.54,5.48,3.1c1.68,1,3.33,2,5.06,2.87a3.87,3.87,0,0,0,5-1.79c0-.05,0-.13,0-.23l-.61-.13a11.66,11.66,0,0,1-5.53-2.4c-1.13-.92-1.26-1.31-.57-2.92a4.23,4.23,0,0,1,.23-.41c2-3.48,4-7,6-10.44,1-1.74,1.92-3.55,3.76-4.79a7.58,7.58,0,0,0-.64-.47C72,259.73,70.37,258.81,68.77,257.94Z"/><path class="cls-1" d="M95.42,11.5a9.56,9.56,0,0,1,.31,1.68c.28,4,.54,7.93.82,11.9.13,1.86.33,3.72.4,5.59.09,2.74.14,5.48.12,8.22a21.45,21.45,0,0,1-.4,2.92c2-.19,3.86-.34,5.74-.55A4.14,4.14,0,0,0,106,38.18c.19-.51.35-1,.51-1.56.24-.78.09-1-.71-1.21a6.76,6.76,0,0,1-1.67-.59,2.93,2.93,0,0,1-1.22-2.41c-.25-2.09-.41-4.19-.57-6.28q-.3-3.94-.55-7.87c0-.48,0-1,0-1.64.75,1.22,1.35,2.28,2,3.29q1.83,2.73,3.75,5.4c.86,1.21,1.79,2.36,2.67,3.56,1.42,1.95,2.86,3.89,4.21,5.88,1,1.56,2.6,2.89,2.48,5,0,.1.38.34.56.32,2.42-.21,4.83-.42,7.24-.69a4,4,0,0,0,3.48-2.19,19,19,0,0,0,.92-2.13c.33-1,.13-1.31-.83-1.52a2.17,2.17,0,0,1-1.72-1.21,5.84,5.84,0,0,1-.49-1.77c-.22-2.69-.39-5.38-.57-8.06-.07-.94-.13-1.87-.2-2.81-.31-4.38-.63-8.76-.93-13.14a7.76,7.76,0,0,1,1.21-5.12L124.82,1h-1.65c-1.31.13-2.63.24-3.94.39A5.17,5.17,0,0,0,115,5.07c-.2.77-.29,1.58-.44,2.45l1.32.07a2.53,2.53,0,0,1,2.64,2.19,8.87,8.87,0,0,1,.28,1.34q.42,5.39.82,10.79c.06.87.14,1.73.2,2.6,0,.32,0,.65,0,1l-.19.08c-.3-.41-.61-.81-.89-1.23-.62-1-1.18-2-1.85-2.95-1.62-2.27-3.3-4.48-4.92-6.75q-2.81-3.93-5.55-7.9A6.75,6.75,0,0,1,105,3.51a.69.69,0,0,0-.86-.73c-2.41.21-4.83.33-7.22.64a4.19,4.19,0,0,0-3.35,2.22,8.85,8.85,0,0,0-1.12,3.92l.82.08A2.19,2.19,0,0,1,95.42,11.5Z"/><path class="cls-1" d="M251.85,39.67c-1.41-.88-2.82-1.74-4.27-2.56a3.71,3.71,0,0,0-4-.17,14.08,14.08,0,0,0-2,1.55c-1,.94-1,1,0,1.84,1.7,1.41,2,2.32,1.27,4.44a9.68,9.68,0,0,1-.62,1.52q-1.59,3-3.22,5.88c-.65,1.15-1.3,2.3-2,3.39a28.47,28.47,0,0,1-4.2,5.16c-1.78,1.63-3.63,2.72-6.18,2.24-1.63-.31-3.92-2.23-4.15-3.86a13.11,13.11,0,0,1,0-3.54A18.62,18.62,0,0,1,225,49c1.83-3.21,3.81-6.34,5.89-9.39a42.12,42.12,0,0,1,4-4.84c1-1.05,2.11-1.93,3.23-3a6.53,6.53,0,0,0-.87-.72c-1.68-1-3.38-2.05-5.08-3.05-1.22-.71-2.45-1.4-3.69-2.09a3.38,3.38,0,0,0-3.8.19,21.1,21.1,0,0,0-1.93,1.61c-.64.56-.66.89-.1,1.5a2.24,2.24,0,0,1,.36,3.08c-.51.88-1.15,1.68-1.68,2.55-1.18,1.89-2.36,3.79-3.49,5.72-1,1.67-1.95,3.35-2.82,5.08a30.35,30.35,0,0,0-1.28,3.37,14.93,14.93,0,0,0-.66,5.14,12.7,12.7,0,0,0,3.82,9.16,19.15,19.15,0,0,0,7.64,4.69,10.39,10.39,0,0,0,6.15.15,11.15,11.15,0,0,0,5.13-2.74,27.14,27.14,0,0,0,3-3.06q2.43-3.36,4.52-6.95c1.8-3.1,3.41-6.3,5.14-9.44a14.84,14.84,0,0,1,4.26-5.21v-.27A6,6,0,0,0,251.85,39.67Z"/><path class="cls-1" d="M14.88,65.27a12.71,12.71,0,0,0,7.79.72,23.13,23.13,0,0,0,9.57-5.09A6.58,6.58,0,0,0,34,53.05c-.44-.87-.57-.9-1.22-.22a5.45,5.45,0,0,0-.46.5,14.07,14.07,0,0,1-4.72,4.09,7,7,0,0,1-7.25-.16A16.79,16.79,0,0,1,15.45,52c-1.11-1.75-2-3.61-3-5.44a18.41,18.41,0,0,1-2.24-8.46,5.33,5.33,0,0,1,4.13-5.42,1.62,1.62,0,0,1,2.08,1.16c.12.4.26.79.47,1.37,1-1.07,1.92-2,2.77-2.95a2.26,2.26,0,0,0,.56-1.15c.16-1.24.22-2.49.3-3.74a.64.64,0,0,0-.78-.73,26.33,26.33,0,0,0-3.07.28A19.5,19.5,0,0,0,4.79,33.56a13.39,13.39,0,0,0-2.53,4.51c-.37,1.17-.64,2.37-1,3.55v3.57a1.9,1.9,0,0,1,.11.39,22.13,22.13,0,0,0,2.89,9,47.32,47.32,0,0,0,3.51,5.31A15.4,15.4,0,0,0,14.88,65.27Z"/><path class="cls-1" d="M29.8,27.27a2.42,2.42,0,0,1,2.61,1.32A9,9,0,0,1,33,29.76c.72,1.9,1.41,3.81,2.12,5.71C37,40.69,39,45.89,40.94,51.12a15.86,15.86,0,0,1,.7,3c.16,1,.2,2,.29,3.12l.63-.21c2.08-.77,4.17-1.5,6.22-2.34a40.32,40.32,0,0,0,3.72-1.86,1.19,1.19,0,0,0,.55-.73,33.26,33.26,0,0,0,.52-3.7c.06-1-.08-1.19-1.13-1.17a2.83,2.83,0,0,1-2.78-1.95c-1.11-2.6-2.09-5.26-3.12-7.9-.17-.43-.1-.69.41-.87,2.3-.82,4.59-1.68,6.87-2.56.56-.22.84-.14,1.06.47.86,2.38,1.82,4.73,2.66,7.12.69,2,1.34,4,1.87,6a17.28,17.28,0,0,1,.27,3,3.32,3.32,0,0,0,.41-.08c3-1.14,6-2.25,9-3.43a2.83,2.83,0,0,0,2-2.33,22.89,22.89,0,0,0,.19-2.86c0-1.16,0-1.22-1.22-1.29A2.58,2.58,0,0,1,67.64,39c-.26-.54-.53-1.07-.74-1.62q-3.21-8.44-6.41-16.91c-1.13-3-2.35-5.91-2.33-9.17,0-.61-.33-.64-.75-.48-3,1.14-6,2.24-9,3.45a3,3,0,0,0-1.74,2.17,14.27,14.27,0,0,0-.08,4.33l.38,0c1.92-.24,2.73.2,3.47,2s1.33,3.45,2,5.18c.22.56.13.91-.5,1.15-2.18.82-4.34,1.71-6.51,2.54a.82.82,0,0,1-1.2-.52c-.55-1.43-1.2-2.82-1.7-4.26-.75-2.2-1.77-4.32-1.92-6.69-.05-.87-.13-1.73-.21-2.67a4.08,4.08,0,0,0-1,.12C36.62,18.67,33.81,19.75,31,21a3.64,3.64,0,0,0-1.57,1.44c-.9,1.55-.56,3.26-.53,5Z"/><path class="cls-1" d="M186.68,49.44a22,22,0,0,0,6.49,3.31,16.46,16.46,0,0,0,7.27,1,4.5,4.5,0,0,0,4-2.77c.58-1.34,1.17-2.68,1.79-4,.93-2,1.54-4.16,3.07-5.85.5-.55,1-1.14,1.51-1.8a18.46,18.46,0,0,0-1.74-.89c-1.46-.58-3-1.07-4.43-1.63s-3-1.23-4.45-1.76a2.67,2.67,0,0,0-1.67-.09A6.32,6.32,0,0,0,195.14,38a.53.53,0,0,0,.29.83c.47.22,1,.39,1.44.61a2,2,0,0,1,1.31,2.38,14.09,14.09,0,0,1-2,4.9,2.4,2.4,0,0,1-2,1.15A3.52,3.52,0,0,1,191,44.92a23.57,23.57,0,0,1-.22-4.36,24.5,24.5,0,0,1,2.12-7.9c1.52-3.78,3.3-7.39,6.51-10.09a6.32,6.32,0,0,1,6.28-1.52A2.5,2.5,0,0,1,207.54,23a2,2,0,0,1-1.09,2,9,9,0,0,0-1,1l.08.24c1.44.37,2.88.82,4.35,1.1A7.9,7.9,0,0,0,216,26.12a1.07,1.07,0,0,0,.51-1.46,5,5,0,0,0-.29-.62,20.33,20.33,0,0,0-8.88-8.24,15.72,15.72,0,0,0-6.05-1.6,15,15,0,0,0-5.23.52,18,18,0,0,0-7.17,4,20.88,20.88,0,0,0-4,5.27,23.26,23.26,0,0,0-2.72,6.33,5,5,0,0,1-.32.66,3.84,3.84,0,0,0-.45,1.22,20.07,20.07,0,0,1-.2,2.42,16,16,0,0,0,.57,7.85A14.57,14.57,0,0,0,186.68,49.44Z"/><path class="cls-1" d="M69.46,13.8A2.66,2.66,0,0,1,72.38,16c1,4,2,8,2.89,12,.68,2.91,1.26,5.85,1.94,8.75a19.31,19.31,0,0,1,.7,7.52,7.37,7.37,0,0,0,0,1.06c3.4-.85,6.69-1.62,9.95-2.5a2.71,2.71,0,0,0,2.22-2c.23-1.11.41-2.24.63-3.35.11-.58-.17-.82-.7-1A5.11,5.11,0,0,1,88.56,36a3.32,3.32,0,0,1-1.35-2.29q-2-8.75-4-17.5c-.76-3.4-1.76-6.78-1.29-10.34,0-.4-.21-.53-.56-.48a19.22,19.22,0,0,0-2.17.32c-2.71.71-5.42,1.43-8.12,2.21A2.06,2.06,0,0,0,70,8.77a10.57,10.57,0,0,0-1,5Z"/><path class="cls-1" d="M154.34,29c1.93.35,3.86.66,5.81.91a2.44,2.44,0,0,0,2.23-.8,13.45,13.45,0,0,0,2.41-5.14,2.94,2.94,0,0,0-.69-.18,62.28,62.28,0,0,1-9.22-1.24A3.54,3.54,0,0,0,151,24.18c-.65,1.09-1.2,2.24-1.75,3.38a8.62,8.62,0,0,0-.39,1.44A10.5,10.5,0,0,1,154.34,29Z"/><path class="cls-1" d="M87.07,279.29a10,10,0,0,0-2-.8,2.94,2.94,0,0,0-1.82.12,6.11,6.11,0,0,0-2.36,2.77c1,.35,2.06.65,3.06,1s2.17,1,3.3,1.31a2.74,2.74,0,0,0,2,0,13.49,13.49,0,0,0,2.25-2.16,2.18,2.18,0,0,0,.28-.62c-.88-.22-1.69-.37-2.46-.63S87.82,279.61,87.07,279.29Z"/><path class="cls-1" d="M141.66,82.89c1,0,2-.18,2.92-.27l3.17-.27a8.86,8.86,0,0,1-.26,1.23c-.79,2.08-1.61,4.14-2.41,6.21a9.47,9.47,0,0,0-.51,1.53,9.26,9.26,0,0,1-2,4.73c-.08.1-.2.31-.17.35.67.82,0,1.61,0,2.41s.3,1.14,1.1.88a3.25,3.25,0,0,0,2.11-2.27c1.66-4.92,3.34-9.82,5-14.74a1.24,1.24,0,0,1,1.27-1c1.78-.13,3.56-.34,5.33-.57.78-.11,1.44-.52,1.43-1.42a1.37,1.37,0,0,0-1.44-1.4c-.7,0-1.41,0-2.11,0s-1.1,0-1.65,0l-.34-.41c1-2.31,2-4.63,3-6.92.65-1.45-.06-2.62-1.63-2.56-2.76.1-5.52.26-8.28.34-2,.06-3.3,1.39-4.86,2.27-.06,0-.14.09-.14.14a8.19,8.19,0,0,0-.1,1.84c0,.24.51.59.8.6a3.47,3.47,0,0,0,3-1.1,1.79,1.79,0,0,1,1.87-.6c1,.11,1.94.18,2.91.25.66.06,1.31.1,2.28.17a29.83,29.83,0,0,0-1.36,2.88,5.7,5.7,0,0,0-.31,2.2c0,.62,0,1-.66,1.09-.43.08-.85.19-1.28.25-2.21.28-4.43.47-6.62.83a1.79,1.79,0,0,0-1.12,2.85A1.46,1.46,0,0,0,141.66,82.89Z"/><path class="cls-1" d="M102.63,71.83a2.19,2.19,0,0,0,.12,3c.5.49,1.68.28,2.43-.51,1.11-1.18,2.16-2.4,3.42-3.8.78,1,1.29,1.64,1.79,2.29q2.74,3.51,5.47,7a.91.91,0,0,0,1.38.25c.93-.56,1.17-1.2.56-2.09q-2.77-4-5.66-8c-1.12-1.53-1.16-1.5.22-2.84.2-.19.4-.36.59-.56,1-1.06,2-2.07,2.93-3.2a2.11,2.11,0,0,0,.36-1.71c-.14-.35-1-.61-1.52-.57-1.61.11-3.21.34-4.8.61-2.89.5-5.76,1.07-8.65,1.6a1.08,1.08,0,0,0-1,1.28,7.12,7.12,0,0,1,0,.8,1.09,1.09,0,0,0,1.26,1.29,5.88,5.88,0,0,0,1.09-.23L109.07,65l.24.33a2.42,2.42,0,0,0-.62.32C106.66,67.68,104.62,69.73,102.63,71.83Z"/><path class="cls-1" d="M107.55,91.67c1.74.69,3.53,1.25,5.31,1.84a1,1,0,0,0,.67,0,34.2,34.2,0,0,0,4.51-2.2,7.65,7.65,0,0,0,2-2.53c.19-.32,0-1-.3-1.41-.12-.16-.84,0-1.25.19s-.45.39-.66.6c-2.21,2.23-6.82,2-8.5-.59a19.06,19.06,0,0,1-1.2-3.28c-.17-.41-.51-.93-.88-1a1.16,1.16,0,0,0-1.57.71c-.23.69-.37,1.41-.59,2.31.39,1.34.75,2.8,1.27,4.21A2.23,2.23,0,0,0,107.55,91.67Z"/><path class="cls-1" d="M121.65,79c1,.09,1.17-.69,1.38-1.42.41-1.46.8-2.92,1.27-4.36,1-2.88,2-5.73,2.93-8.6a1.92,1.92,0,0,0-1.57-2.45c-.88-.18-1.15.65-1.37,1.31q-2.13,6.42-4.22,12.85c-.06.19-.09.39-.11.46A2.12,2.12,0,0,0,121.65,79Z"/></g></svg>
